<?xml version="1.0" encoding="utf-8" standalone="no"?>
<!DOCTYPE svg PUBLIC "-//W3C//DTD SVG 1.1//EN"
  "http://www.w3.org/Graphics/SVG/1.1/DTD/svg11.dtd">
<!-- Created with matplotlib (https://matplotlib.org/) -->
<svg height="264.53777pt" version="1.1" viewBox="0 0 264.53777 264.53777" width="264.53777pt" xmlns="http://www.w3.org/2000/svg" xmlns:xlink="http://www.w3.org/1999/xlink">
 <metadata>
  <rdf:RDF xmlns:cc="http://creativecommons.org/ns#" xmlns:dc="http://purl.org/dc/elements/1.1/" xmlns:rdf="http://www.w3.org/1999/02/22-rdf-syntax-ns#">
   <cc:Work>
    <dc:type rdf:resource="http://purl.org/dc/dcmitype/StillImage"/>
    <dc:date>2020-12-21T14:40:47.296005</dc:date>
    <dc:format>image/svg+xml</dc:format>
    <dc:creator>
     <cc:Agent>
      <dc:title>Matplotlib v3.3.2, https://matplotlib.org/</dc:title>
     </cc:Agent>
    </dc:creator>
   </cc:Work>
  </rdf:RDF>
 </metadata>
 <defs>
  <style type="text/css">*{stroke-linecap:butt;stroke-linejoin:round;}</style>
 </defs>
 <g id="figure_1">
  <g id="patch_1">
   <path d="M 0 264.53777 
L 264.53777 264.53777 
L 264.53777 0 
L 0 0 
z
" style="fill:none;"/>
  </g>
  <g id="axes_1">
   <g id="patch_2">
    <path clip-path="url(#pd2438f3b35)" d="M 128.485175 81.606963 
C 122.57547 76.648131 115.843414 72.761377 108.594087 70.122837 
C 101.34476 67.484298 93.689348 66.134442 85.974775 66.134442 
C 78.260202 66.134442 70.604791 67.484298 63.355464 70.122837 
C 56.106137 72.761377 49.374081 76.648131 43.464375 81.606963 
C 37.554669 86.565795 32.557954 92.520648 28.700668 99.201664 
C 24.843382 105.88268 22.184685 113.187388 20.845064 120.784759 
C 19.505442 128.382131 19.505442 136.155639 20.845064 143.75301 
C 22.184685 151.350381 24.843382 158.65509 28.700668 165.336106 
C 32.557954 172.017122 37.554669 177.971975 43.464375 182.930807 
C 49.374081 187.889639 56.106137 191.776393 63.355464 194.414932 
C 70.604791 197.053472 78.260202 198.403327 85.974775 198.403327 
C 93.689348 198.403327 101.34476 197.053472 108.594087 194.414932 
C 115.843414 191.776393 122.57547 187.889639 128.485175 182.930807 
C 134.394881 177.971975 139.391596 172.017122 143.248882 165.336106 
C 147.106169 158.65509 149.764865 151.350381 151.104487 143.75301 
C 152.444108 136.155639 152.444108 128.382131 151.104487 120.784759 
L 105.513689 128.823647 
C 105.915575 131.102859 105.915575 133.434911 105.513689 135.714123 
C 105.111802 137.993334 104.314193 140.184746 103.157007 142.189051 
C 101.999821 144.193356 100.500807 145.979812 98.727895 147.467462 
C 96.954984 148.955111 94.935367 150.121137 92.760569 150.912699 
C 90.58577 151.704261 88.289147 152.109218 85.974775 152.109218 
C 83.660403 152.109218 81.36378 151.704261 79.188982 150.912699 
C 77.014184 150.121137 74.994567 148.955111 73.221655 147.467462 
C 71.448743 145.979812 69.949729 144.193356 68.792543 142.189051 
C 67.635357 140.184746 66.837748 137.993334 66.435862 135.714123 
C 66.033975 133.434911 66.033975 131.102859 66.435862 128.823647 
C 66.837748 126.544436 67.635357 124.353023 68.792543 122.348719 
C 69.949729 120.344414 71.448743 118.557958 73.221655 117.070308 
C 74.994567 115.582659 77.014184 114.416632 79.188982 113.625071 
C 81.36378 112.833509 83.660403 112.428552 85.974775 112.428552 
C 88.289147 112.428552 90.58577 112.833509 92.760569 113.625071 
C 94.935367 114.416632 96.954984 115.582659 98.727895 117.070308 
L 128.485175 81.606963 
z
" style="fill:#0000cd;stroke:#000000;stroke-linejoin:miter;stroke-opacity:0.5;stroke-width:0.5;"/>
   </g>
   <g id="patch_3">
    <path clip-path="url(#pd2438f3b35)" d="M 15.08197 140.973427 
C 16.250608 150.491224 19.324102 159.676929 24.118739 167.981484 
C 28.913376 176.286038 35.331684 183.540615 42.990018 189.311584 
L 74.830579 147.057733 
C 72.845085 145.561556 71.181079 143.68074 69.938025 141.527707 
C 68.694971 139.374674 67.898139 136.993195 67.595159 134.525618 
L 15.08197 140.973427 
z
" style="fill:none;stroke:#000000;stroke-linejoin:miter;stroke-opacity:0.4;stroke-width:1.5;"/>
   </g>
   <g id="patch_4">
    <path clip-path="url(#pd2438f3b35)" d="M 156.86758 123.564343 
C 155.698942 114.046546 152.625448 104.860841 147.830811 96.556286 
C 143.036174 88.251731 136.617867 80.997155 128.959532 75.226186 
L 97.118971 117.480037 
C 99.104466 118.976214 100.768471 120.85703 102.011525 123.010063 
C 103.254579 125.163096 104.051411 127.544575 104.354391 130.012152 
L 156.86758 123.564343 
z
" style="fill:none;stroke:#000000;stroke-linejoin:miter;stroke-opacity:0.4;stroke-width:1.5;"/>
   </g>
   <g id="patch_5">
    <path clip-path="url(#pd2438f3b35)" d="M 103.356273 106.499754 
C 98.527919 103.242988 92.880062 101.407888 87.059563 101.204632 
C 81.239064 101.001376 75.476954 102.438031 70.433181 105.350054 
C 65.389408 108.262078 61.264174 112.533884 58.529949 117.676212 
C 55.795725 122.81854 54.561039 128.627278 54.967304 134.437138 
L 55.627038 134.391005 
C 55.229417 128.704759 56.437832 123.019612 59.113882 117.986694 
C 61.789931 112.953777 65.827395 108.772861 70.763853 105.922796 
C 75.700312 103.07273 81.339823 101.666642 87.036482 101.865574 
C 92.733141 102.064505 98.260831 103.860561 102.986454 107.048034 
L 103.356273 106.499754 
z
" style="fill:#ffffff;"/>
   </g>
   <g id="patch_6">
    <path clip-path="url(#pd2438f3b35)" d="M 110.752655 95.534167 
C 103.869683 90.891543 95.818482 88.275549 87.521175 87.985801 
C 79.223867 87.696053 71.009796 89.744051 63.819737 93.895233 
C 56.629678 98.046416 50.749024 104.136011 46.8513 111.466564 
C 42.953576 118.797117 41.193492 127.077659 41.772636 135.3598 
L 42.432369 135.313667 
C 41.86187 127.15514 43.595683 118.998188 47.435232 111.777046 
C 51.274782 104.555904 57.067664 98.557199 64.150409 94.467974 
C 71.233154 90.37875 79.324627 88.361319 87.498094 88.646743 
C 95.671561 88.932166 103.602595 91.509115 110.382836 96.082446 
L 110.752655 95.534167 
z
" style="fill:#ffffff;"/>
   </g>
   <g id="patch_7">
    <path clip-path="url(#pd2438f3b35)" d="M 118.149038 84.568579 
C 109.211446 78.540098 98.756902 75.14321 87.982786 74.76697 
C 77.208671 74.39073 66.542638 77.05007 57.206293 82.440412 
C 47.869947 87.830753 40.233875 95.738138 35.17265 105.256916 
C 30.111426 114.775694 27.825945 125.528039 28.577967 136.282461 
L 29.237701 136.236328 
C 28.494322 125.60552 30.753534 114.976765 35.756583 105.567398 
C 40.759632 96.158032 48.307934 88.341536 57.536965 83.013153 
C 66.765996 77.684769 77.30943 75.055996 87.959706 75.427911 
C 98.609981 75.799827 108.944358 79.15767 117.779219 85.116859 
L 118.149038 84.568579 
z
" style="fill:#ffffff;"/>
   </g>
   <g id="patch_8">
    <path clip-path="url(#pd2438f3b35)" d="M 68.593277 158.038016 
C 73.421631 161.294781 79.069488 163.129881 84.889988 163.333138 
C 90.710487 163.536394 96.472596 162.099739 101.516369 159.187715 
C 106.560142 156.275692 110.685377 152.003886 113.419601 146.861558 
C 116.153826 141.719229 117.388511 135.910491 116.982246 130.100631 
L 116.322513 130.146764 
C 116.720134 135.83301 115.511718 141.518158 112.835669 146.551075 
C 110.159619 151.583992 106.122155 155.764909 101.185697 158.614974 
C 96.249238 161.46504 90.609727 162.871128 84.913068 162.672196 
C 79.216409 162.473265 73.688719 160.677209 68.963096 157.489736 
L 68.593277 158.038016 
z
" style="fill:#ffffff;"/>
   </g>
   <g id="patch_9">
    <path clip-path="url(#pd2438f3b35)" d="M 61.196895 169.003603 
C 68.079867 173.646227 76.131068 176.26222 84.428376 176.551969 
C 92.725683 176.841717 100.939754 174.793719 108.129813 170.642537 
C 115.319872 166.491354 121.200526 160.401759 125.098251 153.071206 
C 128.995975 145.740652 130.756058 137.460111 130.176914 129.17797 
L 129.517181 129.224103 
C 130.087681 137.38263 128.353867 145.539581 124.514318 152.760723 
C 120.674769 159.981865 114.881886 165.980571 107.799141 170.069796 
C 100.716396 174.15902 92.624923 176.176451 84.451456 175.891027 
C 76.277989 175.605604 68.346956 173.028654 61.566714 168.455324 
L 61.196895 169.003603 
z
" style="fill:#ffffff;"/>
   </g>
   <g id="patch_10">
    <path clip-path="url(#pd2438f3b35)" d="M 53.800513 179.969191 
C 62.738104 185.997672 73.192648 189.394559 83.966764 189.7708 
C 94.74088 190.14704 105.406912 187.4877 114.743258 182.097358 
C 124.079603 176.707017 131.715676 168.799632 136.7769 159.280854 
C 141.838124 149.762076 144.123605 139.009731 143.371583 128.255309 
L 142.71185 128.301442 
C 143.455228 138.93225 141.196016 149.561004 136.192967 158.970371 
C 131.189918 168.379738 123.641616 176.196234 114.412585 181.524617 
C 105.183554 186.853001 94.64012 189.481774 83.989845 189.109858 
C 73.339569 188.737942 63.005192 185.3801 54.170332 179.420911 
L 53.800513 179.969191 
z
" style="fill:#ffffff;"/>
   </g>
   <g id="patch_11">
    <path clip-path="url(#pd2438f3b35)" d="M 69.676156 126.336673 
C 66.833227 125.922405 64.945647 125.842993 64.23887 126.107921 
C 63.532092 126.372849 64.035422 126.971131 65.688743 127.83131 
C 67.342063 128.691488 70.07682 129.777896 73.566374 130.960772 
C 77.055927 132.143649 81.155586 133.373946 85.375685 134.504719 
C 89.595785 135.635491 93.761342 136.619851 97.374822 137.340227 
C 100.988302 138.060603 103.899875 138.487125 105.761782 138.568848 
C 107.623689 138.650572 108.358727 138.384109 107.879104 137.801286 
C 107.39948 137.218463 105.725082 136.343447 103.0559 135.280748 
" style="fill:none;stroke:#000000;stroke-linejoin:miter;stroke-opacity:0.4;stroke-width:1.5;"/>
   </g>
   <g id="patch_12">
    <path clip-path="url(#pd2438f3b35)" d="M 115.644411 164.481584 
C 117.095314 163.080464 118.148143 161.385659 118.571026 159.77043 
C 118.993909 158.155202 118.752319 156.751426 117.899463 155.868268 
C 117.046607 154.985109 115.652118 154.694675 114.023114 155.06093 
C 112.394111 155.427185 110.663596 156.420225 109.212693 157.821345 
C 107.761791 159.222465 106.708961 160.91727 106.286078 162.532499 
C 105.863195 164.147728 106.104786 165.551504 106.957641 166.434662 
C 107.810497 167.31782 109.204987 167.608254 110.83399 167.241999 
C 112.462993 166.875745 114.193509 165.882704 115.644411 164.481584 
z
"/>
   </g>
   <g id="line2d_1">
    <path clip-path="url(#pd2438f3b35)" d="M 112.428552 161.151465 
L 113.311227 159.91909 
L 114.120346 159.16137 
L 114.782353 158.81684 
L 115.444359 158.725119 
L 116.032809 158.856846 
L 116.694816 159.243227 
L 117.430379 159.962319 
L 118.239497 161.092233 
L 119.195729 162.856055 
L 120.299073 165.408413 
L 121.623086 169.078421 
L 123.388436 174.688771 
L 127.875369 189.282551 
L 129.272938 192.930126 
L 130.376282 195.24161 
L 131.332514 196.768433 
L 132.141633 197.68223 
L 132.877195 198.196138 
L 133.539202 198.393526 
L 134.127652 198.355846 
L 134.789658 198.074171 
L 135.451665 197.542696 
L 136.187227 196.667574 
L 137.069903 195.241325 
L 138.09969 193.100745 
L 139.276591 190.108235 
L 140.747716 185.728193 
L 143.101517 177.907728 
L 145.749543 169.297908 
L 147.220668 165.222242 
L 148.397568 162.555795 
L 149.427356 160.749695 
L 150.310031 159.63851 
L 151.045594 159.040503 
L 151.7076 158.765893 
L 152.369607 158.744744 
L 153.031613 158.977326 
L 153.69362 159.460663 
L 154.429182 160.284166 
L 155.238301 161.522996 
L 156.194533 163.404768 
L 157.297877 166.074849 
L 158.695446 170.079516 
L 160.681465 176.539024 
L 164.285723 188.32085 
L 165.756848 192.313987 
L 166.933748 194.895506 
L 167.88998 196.511455 
L 168.772655 197.578824 
L 169.508218 198.138687 
L 170.170224 198.378231 
L 170.758674 198.378205 
L 171.420681 198.138601 
L 172.082687 197.648373 
L 172.81825 196.817471 
L 173.700925 195.441101 
L 174.657157 193.518076 
L 175.834057 190.609855 
L 177.305182 186.306372 
L 179.51187 179.030633 
L 182.527678 169.187748 
L 183.998803 165.130142 
L 185.175703 162.482386 
L 185.911266 161.151465 
L 185.911266 161.151465 
" style="fill:none;stroke:#000000;stroke-linecap:round;stroke-width:7;"/>
   </g>
   <g id="line2d_2">
    <path clip-path="url(#pd2438f3b35)" d="M 104.492419 168.100552 
L 112.428552 161.151465 
" style="fill:none;stroke:#000000;stroke-linecap:square;"/>
   </g>
   <g id="line2d_3">
    <path clip-path="url(#pd2438f3b35)" d="M 102.508386 168.100552 
L 104.492419 168.100552 
" style="fill:none;stroke:#000000;stroke-linecap:round;"/>
   </g>
   <g id="line2d_4">
    <path clip-path="url(#pd2438f3b35)" d="M 104.230447 170.067214 
L 104.492419 168.100552 
" style="fill:none;stroke:#000000;stroke-linecap:round;"/>
   </g>
   <g id="line2d_5">
    <path clip-path="url(#pd2438f3b35)" d="M 112.428552 161.151465 
L 113.311227 159.91909 
L 114.120346 159.16137 
L 114.782353 158.81684 
L 115.444359 158.725119 
L 116.032809 158.856846 
L 116.694816 159.243227 
L 117.430379 159.962319 
L 118.239497 161.092233 
L 119.195729 162.856055 
L 120.299073 165.408413 
L 121.623086 169.078421 
L 123.388436 174.688771 
L 127.875369 189.282551 
L 129.272938 192.930126 
L 130.376282 195.24161 
L 131.332514 196.768433 
L 132.141633 197.68223 
L 132.877195 198.196138 
L 133.539202 198.393526 
L 134.127652 198.355846 
L 134.789658 198.074171 
L 135.451665 197.542696 
L 136.187227 196.667574 
L 137.069903 195.241325 
L 138.09969 193.100745 
L 139.276591 190.108235 
L 140.747716 185.728193 
L 143.101517 177.907728 
L 145.749543 169.297908 
L 147.220668 165.222242 
L 148.397568 162.555795 
L 149.427356 160.749695 
L 150.310031 159.63851 
L 151.045594 159.040503 
L 151.7076 158.765893 
L 152.369607 158.744744 
L 153.031613 158.977326 
L 153.69362 159.460663 
L 154.429182 160.284166 
L 155.238301 161.522996 
L 156.194533 163.404768 
L 157.297877 166.074849 
L 158.695446 170.079516 
L 160.681465 176.539024 
L 164.285723 188.32085 
L 165.756848 192.313987 
L 166.933748 194.895506 
L 167.88998 196.511455 
L 168.772655 197.578824 
L 169.508218 198.138687 
L 170.170224 198.378231 
L 170.758674 198.378205 
L 171.420681 198.138601 
L 172.082687 197.648373 
L 172.81825 196.817471 
L 173.700925 195.441101 
L 174.657157 193.518076 
L 175.834057 190.609855 
L 177.305182 186.306372 
L 179.51187 179.030633 
L 182.527678 169.187748 
L 183.998803 165.130142 
L 185.175703 162.482386 
L 185.911266 161.151465 
L 185.911266 161.151465 
" style="fill:none;stroke:#a9a9a9;stroke-linecap:round;"/>
   </g>
   <g id="text_1">
    <!-- InPy -->
    <g transform="translate(165.740298 148.802495)scale(0.45 -0.45)">
     <defs>
      <path d="M 8.84375 72.90625 
L 17.71875 72.90625 
L 17.71875 0 
L 8.84375 0 
z
" id="DejaVuSansCondensed-73"/>
      <path d="M 49.421875 33.015625 
L 49.421875 0 
L 41.3125 0 
L 41.3125 32.71875 
Q 41.3125 40.484375 38.578125 44.328125 
Q 35.84375 48.1875 30.421875 48.1875 
Q 23.875 48.1875 20.09375 43.546875 
Q 16.3125 38.921875 16.3125 30.90625 
L 16.3125 0 
L 8.15625 0 
L 8.15625 54.6875 
L 16.3125 54.6875 
L 16.3125 46.1875 
Q 19.1875 51.125 23.109375 53.5625 
Q 27.046875 56 32.234375 56 
Q 40.671875 56 45.046875 50.171875 
Q 49.421875 44.34375 49.421875 33.015625 
z
" id="DejaVuSansCondensed-110"/>
      <path d="M 17.71875 64.796875 
L 17.71875 37.40625 
L 28.859375 37.40625 
Q 35.0625 37.40625 38.453125 40.96875 
Q 41.84375 44.53125 41.84375 51.125 
Q 41.84375 57.671875 38.453125 61.234375 
Q 35.0625 64.796875 28.859375 64.796875 
z
M 8.84375 72.90625 
L 28.859375 72.90625 
Q 39.890625 72.90625 45.53125 67.359375 
Q 51.171875 61.8125 51.171875 51.125 
Q 51.171875 40.328125 45.53125 34.8125 
Q 39.890625 29.296875 28.859375 29.296875 
L 17.71875 29.296875 
L 17.71875 0 
L 8.84375 0 
z
" id="DejaVuSansCondensed-80"/>
      <path d="M 28.953125 -5.078125 
Q 25.53125 -14.84375 22.28125 -17.8125 
Q 19.046875 -20.796875 13.578125 -20.796875 
L 7.125 -20.796875 
L 7.125 -13.28125 
L 11.859375 -13.28125 
Q 15.1875 -13.28125 17.03125 -11.515625 
Q 18.890625 -9.765625 21.140625 -3.21875 
L 22.609375 0.875 
L 2.6875 54.6875 
L 11.234375 54.6875 
L 26.609375 11.921875 
L 42 54.6875 
L 50.59375 54.6875 
z
" id="DejaVuSansCondensed-121"/>
     </defs>
     <use xlink:href="#DejaVuSansCondensed-73"/>
     <use x="26.513672" xlink:href="#DejaVuSansCondensed-110"/>
     <use x="83.544922" xlink:href="#DejaVuSansCondensed-80"/>
     <use x="137.792969" xlink:href="#DejaVuSansCondensed-121"/>
    </g>
   </g>
  </g>
 </g>
 <defs>
  <clipPath id="pd2438f3b35">
   <rect height="264.53777" width="264.53777" x="0" y="0"/>
  </clipPath>
 </defs>
</svg>
