<?xml version="1.0" encoding="utf-8" standalone="no"?>
<!DOCTYPE svg PUBLIC "-//W3C//DTD SVG 1.1//EN"
  "http://www.w3.org/Graphics/SVG/1.1/DTD/svg11.dtd">
<!-- Created with matplotlib (https://matplotlib.org/) -->
<svg height="245.42777pt" version="1.1" viewBox="0 0 258.825943 245.42777" width="258.825943pt" xmlns="http://www.w3.org/2000/svg" xmlns:xlink="http://www.w3.org/1999/xlink">
 <metadata>
  <rdf:RDF xmlns:cc="http://creativecommons.org/ns#" xmlns:dc="http://purl.org/dc/elements/1.1/" xmlns:rdf="http://www.w3.org/1999/02/22-rdf-syntax-ns#">
   <cc:Work>
    <dc:type rdf:resource="http://purl.org/dc/dcmitype/StillImage"/>
    <dc:date>2020-12-22T17:25:41.584105</dc:date>
    <dc:format>image/svg+xml</dc:format>
    <dc:creator>
     <cc:Agent>
      <dc:title>Matplotlib v3.3.2, https://matplotlib.org/</dc:title>
     </cc:Agent>
    </dc:creator>
   </cc:Work>
  </rdf:RDF>
 </metadata>
 <defs>
  <style type="text/css">*{stroke-linecap:butt;stroke-linejoin:round;}</style>
 </defs>
 <g id="figure_1">
  <g id="patch_1">
   <path d="M 0 245.42777 
L 258.825943 245.42777 
L 258.825943 0 
L 0 0 
z
" style="fill:none;"/>
  </g>
  <g id="axes_1">
   <g id="patch_2">
    <path clip-path="url(#pf0045c91c7)" d="M 119.203508 75.71174 
C 113.720714 71.11113 107.474977 67.505152 100.749335 65.057219 
C 94.023694 62.609286 86.921303 61.356942 79.764025 61.356942 
C 72.606747 61.356942 65.504356 62.609286 58.778715 65.057219 
C 52.053074 67.505152 45.807336 71.11113 40.324543 75.71174 
C 34.84175 80.31235 30.205993 85.837029 26.627354 92.035414 
C 23.048715 98.233798 20.582081 105.010821 19.339233 112.059364 
C 18.096384 119.107907 18.096384 126.319863 19.339233 133.368406 
C 20.582081 140.416949 23.048715 147.193971 26.627354 153.392356 
C 30.205993 159.590741 34.84175 165.11542 40.324543 169.71603 
C 45.807336 174.316639 52.053074 177.922618 58.778715 180.370551 
C 65.504356 182.818484 72.606747 184.070827 79.764025 184.070827 
C 86.921303 184.070827 94.023694 182.818484 100.749335 180.370551 
C 107.474977 177.922618 113.720714 174.316639 119.203508 169.71603 
C 124.686301 165.11542 129.322057 159.590741 132.900696 153.392356 
C 136.479335 147.193971 138.945969 140.416949 140.188818 133.368406 
C 141.431666 126.319863 141.431666 119.107907 140.188818 112.059364 
L 97.891463 119.517529 
C 98.264317 121.632091 98.264317 123.795678 97.891463 125.910241 
C 97.518608 128.024804 96.778618 130.057911 95.705026 131.917426 
C 94.631435 133.776942 93.240708 135.434345 91.59587 136.814528 
C 89.951032 138.194711 88.077311 139.276505 86.059618 140.010885 
C 84.041926 140.745265 81.911209 141.120968 79.764025 141.120968 
C 77.616842 141.120968 75.486125 140.745265 73.468432 140.010885 
C 71.45074 139.276505 69.577018 138.194711 67.93218 136.814528 
C 66.287343 135.434345 64.896616 133.776942 63.823024 131.917426 
C 62.749432 130.057911 62.009442 128.024804 61.636587 125.910241 
C 61.263733 123.795678 61.263733 121.632091 61.636587 119.517529 
C 62.009442 117.402966 62.749432 115.369859 63.823024 113.510344 
C 64.896616 111.650828 66.287343 109.993424 67.93218 108.613241 
C 69.577018 107.233059 71.45074 106.151265 73.468432 105.416885 
C 75.486125 104.682505 77.616842 104.306802 79.764025 104.306802 
C 81.911209 104.306802 84.041926 104.682505 86.059618 105.416885 
C 88.077311 106.151265 89.951032 107.233059 91.59587 108.613241 
L 119.203508 75.71174 
z
" style="fill:#228b22;stroke:#000000;stroke-linejoin:miter;stroke-width:0.5;"/>
   </g>
   <g id="patch_3">
    <path clip-path="url(#pf0045c91c7)" d="M 15.196908 137.620378 
C 16.673888 144.017884 19.093528 150.160496 22.376421 155.846634 
C 25.659314 161.532771 29.769152 166.699547 34.571064 171.177402 
L 68.047332 135.2785 
C 66.802391 134.117575 65.736878 132.778041 64.885757 131.303857 
C 64.034637 129.829673 63.407323 128.237144 63.024402 126.578531 
L 15.196908 137.620378 
z
" style="fill:#ffffff;fill-opacity:0.6;stroke:#000000;stroke-linejoin:miter;stroke-opacity:0.7;"/>
   </g>
   <g id="patch_4">
    <path clip-path="url(#pf0045c91c7)" d="M 144.331143 107.807391 
C 142.854162 101.409886 140.434523 95.267274 137.15163 89.581136 
C 133.868737 83.894998 129.758898 78.728223 124.956986 74.250368 
L 91.480719 110.149269 
C 92.725659 111.310195 93.791173 112.649729 94.642293 114.123913 
C 95.493413 115.598097 96.120727 117.190626 96.503648 118.849238 
L 144.331143 107.807391 
z
" style="fill:none;stroke:#000000;stroke-linejoin:miter;stroke-opacity:0.7;"/>
   </g>
   <g id="patch_5">
    <path clip-path="url(#pf0045c91c7)" d="M 100.811577 94.78284 
C 95.204988 90.557972 88.454112 88.11752 81.441986 87.780704 
C 74.42986 87.443887 67.476158 89.226061 61.490444 92.894111 
C 55.50473 96.562161 50.759887 101.948865 47.876554 108.349627 
C 44.993222 114.750388 44.102847 121.873404 45.321893 128.786962 
L 51.364373 127.72151 
C 50.359194 122.020857 51.093363 116.147493 53.470847 110.869672 
C 55.848332 105.591851 59.760747 101.150182 64.696335 98.12565 
C 69.631924 95.101118 75.365679 93.631606 81.147607 93.909332 
C 86.929536 94.187058 92.496047 96.19936 97.119024 99.683023 
L 100.811577 94.78284 
z
" style="fill:#006400;opacity:0.25;"/>
   </g>
   <g id="patch_6">
    <path clip-path="url(#pf0045c91c7)" d="M 110.04296 82.532382 
C 101.97734 76.454501 92.265554 72.943676 82.177934 72.459133 
C 72.090314 71.97459 62.086742 74.538418 53.475715 79.815262 
C 44.864689 85.092106 38.038774 92.8414 33.890822 102.049513 
C 29.742869 111.257627 28.461979 121.504772 30.215695 131.450592 
L 36.258174 130.38514 
C 34.718326 121.652225 35.84301 112.654731 39.485115 104.569559 
C 43.127219 96.484386 49.120706 89.680128 56.681607 85.046802 
C 64.242508 80.413475 73.026133 78.162309 81.883555 78.587761 
C 90.740977 79.013214 99.268399 82.095889 106.350407 87.432565 
L 110.04296 82.532382 
z
" style="fill:#006400;opacity:0.25;"/>
   </g>
   <g id="patch_7">
    <path clip-path="url(#pf0045c91c7)" d="M 57.28352 149.505107 
C 62.661314 154.017612 69.275214 156.808032 76.260102 157.511374 
C 83.244991 158.214715 90.282435 156.798913 96.451917 153.449158 
C 102.621398 150.099403 107.641657 144.968406 110.856028 138.727319 
C 114.070399 132.486231 115.332344 125.419576 114.476796 118.451693 
L 108.386836 119.199446 
C 109.092288 124.944893 108.051737 130.771784 105.401291 135.917944 
C 102.750844 141.064104 98.611332 145.294926 93.524216 148.057004 
C 88.4371 150.819083 82.634295 151.986499 76.874826 151.406551 
C 71.115356 150.826603 65.661789 148.52573 61.227468 144.804893 
L 57.28352 149.505107 
z
" style="fill:#006400;opacity:0.25;"/>
   </g>
   <g id="patch_8">
    <path clip-path="url(#pf0045c91c7)" d="M 47.42365 161.255644 
C 55.160124 167.747317 64.674858 171.761606 74.723294 172.77343 
C 84.77173 173.785255 94.895773 171.748486 103.771167 166.92954 
C 112.646561 162.110595 119.868688 154.729161 124.492872 145.750755 
C 129.117055 136.772348 130.932484 126.606282 129.701695 116.58231 
L 123.611735 117.330063 
C 124.692428 126.1316 123.098393 135.057901 119.038134 142.94138 
C 114.977876 150.824859 108.636496 157.306118 100.843467 161.537387 
C 93.050438 165.768657 84.161034 167.557039 75.338017 166.668608 
C 66.515 165.780177 58.1606 162.255435 51.367598 156.555429 
L 47.42365 161.255644 
z
" style="fill:#006400;opacity:0.25;"/>
   </g>
   <g id="patch_9">
    <path clip-path="url(#pf0045c91c7)" d="M 79.764025 139.893829 
C 84.3202 139.893829 88.690378 138.083642 91.91208 134.86194 
C 95.133782 131.640238 96.943969 127.270059 96.943969 122.713885 
C 96.943969 118.157711 95.133782 113.787532 91.91208 110.56583 
C 88.690378 107.344128 84.3202 105.533941 79.764025 105.533941 
C 75.207851 105.533941 70.837672 107.344128 67.61597 110.56583 
C 64.394269 113.787532 62.584081 118.157711 62.584081 122.713885 
C 62.584081 127.270059 64.394269 131.640238 67.61597 134.86194 
C 70.837672 138.083642 75.207851 139.893829 79.764025 139.893829 
z
" style="fill-opacity:0.1;stroke:#000000;stroke-linejoin:miter;"/>
   </g>
   <g id="patch_10">
    <path clip-path="url(#pf0045c91c7)" d="M 63.244384 117.025716 
C 61.045553 116.770244 59.711511 116.803121 59.387149 117.120777 
C 59.062787 117.438432 59.76029 118.028934 61.4039 118.828147 
C 63.04751 119.62736 65.575488 120.605264 68.713272 121.655648 
C 71.851055 122.706032 75.480777 123.78944 79.208213 124.788204 
C 82.935649 125.786967 86.620785 126.663569 89.863377 127.322802 
C 93.105969 127.982034 95.784215 128.399134 97.607229 128.5288 
C 99.430244 128.658466 100.329549 128.495828 100.207471 128.058549 
C 100.085393 127.621271 98.946518 126.925777 96.914539 126.047607 
" style="fill:none;stroke:#000000;stroke-linejoin:miter;"/>
   </g>
   <g id="patch_11">
    <path clip-path="url(#pf0045c91c7)" d="M 107.29035 152.599564 
C 108.636441 151.29966 109.613214 149.727286 110.005549 148.22874 
C 110.397883 146.730194 110.173745 145.427826 109.382499 144.608467 
C 108.591252 143.789107 107.2975 143.519654 105.786175 143.859451 
C 104.274849 144.199247 102.669345 145.120551 101.323254 146.420455 
C 99.977164 147.72036 99.00039 149.292733 98.608056 150.791279 
C 98.215722 152.289825 98.43986 153.592193 99.231106 154.411553 
C 100.022352 155.230912 101.316105 155.500366 102.82743 155.160569 
C 104.338755 154.820772 105.94426 153.899469 107.29035 152.599564 
z
"/>
   </g>
   <g id="line2d_1">
    <path clip-path="url(#pf0045c91c7)" d="M 104.306802 149.51001 
L 105.193956 148.288843 
L 105.944625 147.616681 
L 106.627051 147.304771 
L 107.241235 147.272052 
L 107.855419 147.4748 
L 108.469602 147.91042 
L 109.152028 148.660681 
L 109.97094 149.914314 
L 110.926337 151.827114 
L 112.018219 154.533189 
L 113.383071 158.533072 
L 115.498592 165.519276 
L 118.228297 174.412702 
L 119.661392 178.33767 
L 120.821517 180.881838 
L 121.776914 182.460663 
L 122.595825 183.401822 
L 123.278251 183.878606 
L 123.892435 184.061734 
L 124.506619 184.009314 
L 125.120802 183.722017 
L 125.803228 183.131898 
L 126.553897 182.164439 
L 127.441051 180.61625 
L 128.464691 178.337316 
L 129.693058 175.017055 
L 131.330881 169.880305 
L 135.971379 154.905105 
L 137.267989 151.675193 
L 138.291628 149.679386 
L 139.178783 148.406598 
L 139.929451 147.688245 
L 140.611878 147.333132 
L 141.226061 147.261127 
L 141.840245 147.424729 
L 142.454428 147.821845 
L 143.136855 148.530675 
L 143.955766 149.737357 
L 144.911163 151.600536 
L 146.003045 154.258565 
L 147.367897 158.214167 
L 149.415176 164.940607 
L 152.349609 174.514386 
L 153.782704 178.421376 
L 154.874586 180.816408 
L 155.829983 182.412978 
L 156.648894 183.370543 
L 157.33132 183.861558 
L 157.945504 184.057732 
L 158.559688 184.018408 
L 159.173871 183.74409 
L 159.856297 183.168056 
L 160.606966 182.21542 
L 161.49412 180.683472 
L 162.51776 178.421024 
L 163.746127 175.11658 
L 165.38395 169.992913 
L 170.092691 154.811381 
L 171.321058 151.750717 
L 172.344697 149.737112 
L 172.481183 149.51001 
L 172.481183 149.51001 
" style="fill:none;stroke:#000000;stroke-linecap:round;stroke-width:9;"/>
   </g>
   <g id="line2d_2">
    <path clip-path="url(#pf0045c91c7)" d="M 96.943969 155.957101 
L 104.306802 149.51001 
" style="fill:none;stroke:#000000;stroke-linecap:square;"/>
   </g>
   <g id="line2d_3">
    <path clip-path="url(#pf0045c91c7)" d="M 95.103261 155.957101 
L 96.943969 155.957101 
" style="fill:none;stroke:#000000;stroke-linecap:round;"/>
   </g>
   <g id="line2d_4">
    <path clip-path="url(#pf0045c91c7)" d="M 96.700921 157.781692 
L 96.943969 155.957101 
" style="fill:none;stroke:#000000;stroke-linecap:round;"/>
   </g>
   <g id="line2d_5">
    <path clip-path="url(#pf0045c91c7)" d="M 104.306802 149.51001 
L 105.193956 148.288843 
L 105.944625 147.616681 
L 106.627051 147.304771 
L 107.241235 147.272052 
L 107.855419 147.4748 
L 108.469602 147.91042 
L 109.152028 148.660681 
L 109.97094 149.914314 
L 110.926337 151.827114 
L 112.018219 154.533189 
L 113.383071 158.533072 
L 115.498592 165.519276 
L 118.228297 174.412702 
L 119.661392 178.33767 
L 120.821517 180.881838 
L 121.776914 182.460663 
L 122.595825 183.401822 
L 123.278251 183.878606 
L 123.892435 184.061734 
L 124.506619 184.009314 
L 125.120802 183.722017 
L 125.803228 183.131898 
L 126.553897 182.164439 
L 127.441051 180.61625 
L 128.464691 178.337316 
L 129.693058 175.017055 
L 131.330881 169.880305 
L 135.971379 154.905105 
L 137.267989 151.675193 
L 138.291628 149.679386 
L 139.178783 148.406598 
L 139.929451 147.688245 
L 140.611878 147.333132 
L 141.226061 147.261127 
L 141.840245 147.424729 
L 142.454428 147.821845 
L 143.136855 148.530675 
L 143.955766 149.737357 
L 144.911163 151.600536 
L 146.003045 154.258565 
L 147.367897 158.214167 
L 149.415176 164.940607 
L 152.349609 174.514386 
L 153.782704 178.421376 
L 154.874586 180.816408 
L 155.829983 182.412978 
L 156.648894 183.370543 
L 157.33132 183.861558 
L 157.945504 184.057732 
L 158.559688 184.018408 
L 159.173871 183.74409 
L 159.856297 183.168056 
L 160.606966 182.21542 
L 161.49412 180.683472 
L 162.51776 178.421024 
L 163.746127 175.11658 
L 165.38395 169.992913 
L 170.092691 154.811381 
L 171.321058 151.750717 
L 172.344697 149.737112 
L 172.481183 149.51001 
L 172.481183 149.51001 
" style="fill:none;stroke:#a9a9a9;stroke-linecap:round;stroke-opacity:0.5;stroke-width:2;"/>
   </g>
   <g id="text_1">
    <!-- InPy -->
    <g transform="translate(153.767349 138.05312)scale(0.55 -0.55)">
     <defs>
      <path d="M 8.84375 72.90625 
L 17.71875 72.90625 
L 17.71875 0 
L 8.84375 0 
z
" id="DejaVuSansCondensed-73"/>
      <path d="M 49.421875 33.015625 
L 49.421875 0 
L 41.3125 0 
L 41.3125 32.71875 
Q 41.3125 40.484375 38.578125 44.328125 
Q 35.84375 48.1875 30.421875 48.1875 
Q 23.875 48.1875 20.09375 43.546875 
Q 16.3125 38.921875 16.3125 30.90625 
L 16.3125 0 
L 8.15625 0 
L 8.15625 54.6875 
L 16.3125 54.6875 
L 16.3125 46.1875 
Q 19.1875 51.125 23.109375 53.5625 
Q 27.046875 56 32.234375 56 
Q 40.671875 56 45.046875 50.171875 
Q 49.421875 44.34375 49.421875 33.015625 
z
" id="DejaVuSansCondensed-110"/>
      <path d="M 17.71875 64.796875 
L 17.71875 37.40625 
L 28.859375 37.40625 
Q 35.0625 37.40625 38.453125 40.96875 
Q 41.84375 44.53125 41.84375 51.125 
Q 41.84375 57.671875 38.453125 61.234375 
Q 35.0625 64.796875 28.859375 64.796875 
z
M 8.84375 72.90625 
L 28.859375 72.90625 
Q 39.890625 72.90625 45.53125 67.359375 
Q 51.171875 61.8125 51.171875 51.125 
Q 51.171875 40.328125 45.53125 34.8125 
Q 39.890625 29.296875 28.859375 29.296875 
L 17.71875 29.296875 
L 17.71875 0 
L 8.84375 0 
z
" id="DejaVuSansCondensed-80"/>
      <path d="M 28.953125 -5.078125 
Q 25.53125 -14.84375 22.28125 -17.8125 
Q 19.046875 -20.796875 13.578125 -20.796875 
L 7.125 -20.796875 
L 7.125 -13.28125 
L 11.859375 -13.28125 
Q 15.1875 -13.28125 17.03125 -11.515625 
Q 18.890625 -9.765625 21.140625 -3.21875 
L 22.609375 0.875 
L 2.6875 54.6875 
L 11.234375 54.6875 
L 26.609375 11.921875 
L 42 54.6875 
L 50.59375 54.6875 
z
" id="DejaVuSansCondensed-121"/>
     </defs>
     <use xlink:href="#DejaVuSansCondensed-73"/>
     <use x="26.513672" xlink:href="#DejaVuSansCondensed-110"/>
     <use x="83.544922" xlink:href="#DejaVuSansCondensed-80"/>
     <use x="137.792969" xlink:href="#DejaVuSansCondensed-121"/>
    </g>
   </g>
  </g>
 </g>
 <defs>
  <clipPath id="pf0045c91c7">
   <rect height="245.42777" width="245.42777" x="0" y="0"/>
  </clipPath>
 </defs>
</svg>
