<?xml version="1.0" encoding="utf-8" standalone="no"?>
<!DOCTYPE svg PUBLIC "-//W3C//DTD SVG 1.1//EN"
  "http://www.w3.org/Graphics/SVG/1.1/DTD/svg11.dtd">
<!-- Created with matplotlib (https://matplotlib.org/) -->
<svg height="266.4pt" version="1.1" viewBox="0 0 266.4 266.4" width="266.4pt" xmlns="http://www.w3.org/2000/svg" xmlns:xlink="http://www.w3.org/1999/xlink">
 <metadata>
  <rdf:RDF xmlns:cc="http://creativecommons.org/ns#" xmlns:dc="http://purl.org/dc/elements/1.1/" xmlns:rdf="http://www.w3.org/1999/02/22-rdf-syntax-ns#">
   <cc:Work>
    <dc:type rdf:resource="http://purl.org/dc/dcmitype/StillImage"/>
    <dc:date>2020-12-21T14:42:06.788780</dc:date>
    <dc:format>image/svg+xml</dc:format>
    <dc:creator>
     <cc:Agent>
      <dc:title>Matplotlib v3.3.2, https://matplotlib.org/</dc:title>
     </cc:Agent>
    </dc:creator>
   </cc:Work>
  </rdf:RDF>
 </metadata>
 <defs>
  <style type="text/css">*{stroke-linecap:butt;stroke-linejoin:round;}</style>
 </defs>
 <g id="figure_1">
  <g id="patch_1">
   <path d="M 0 266.4 
L 266.4 266.4 
L 266.4 0 
L 0 0 
z
" style="fill:none;"/>
  </g>
  <g id="axes_1">
   <g id="patch_2">
    <path clip-path="url(#pffe60debc8)" d="M 173.672225 61.413004 
C 165.015778 54.149382 155.154765 48.456123 144.53606 44.591231 
C 133.917356 40.726339 122.703825 38.749091 111.403636 38.749091 
C 100.103447 38.749091 88.889917 40.726339 78.271212 44.591231 
C 67.652508 48.456123 57.791495 54.149382 49.135048 61.413004 
C 40.478601 68.676625 33.159488 77.399204 27.509394 87.185455 
C 21.859299 96.971705 17.964881 107.671532 16.002623 118.800046 
C 14.040366 129.928559 14.040366 141.315077 16.002623 152.443591 
C 17.964881 163.572105 21.859299 174.271931 27.509394 184.058182 
C 33.159488 193.844433 40.478601 202.567011 49.135048 209.830633 
C 57.791495 217.094254 67.652508 222.787513 78.271212 226.652405 
C 88.889917 230.517297 100.103447 232.494545 111.403636 232.494545 
C 122.703825 232.494545 133.917356 230.517297 144.53606 226.652405 
C 155.154765 222.787513 165.015778 217.094254 173.672225 209.830633 
C 182.328672 202.567011 189.647785 193.844433 195.297879 184.058182 
C 200.947974 174.271931 204.842392 163.572105 206.804649 152.443591 
C 208.766906 141.315077 208.766906 129.928559 206.804649 118.800046 
L 140.02394 130.575286 
C 140.612617 133.913841 140.612617 137.329796 140.02394 140.66835 
C 139.435263 144.006904 138.266938 147.216852 136.571909 150.152727 
C 134.876881 153.088603 132.681147 155.705376 130.084213 157.884463 
C 127.487279 160.063549 124.528975 161.771527 121.343364 162.930994 
C 118.157752 164.090462 114.793693 164.683636 111.403636 164.683636 
C 108.01358 164.683636 104.64952 164.090462 101.463909 162.930994 
C 98.278298 161.771527 95.319994 160.063549 92.72306 157.884463 
C 90.126126 155.705376 87.930392 153.088603 86.235364 150.152727 
C 84.540335 147.216852 83.37201 144.006904 82.783333 140.66835 
C 82.194655 137.329796 82.194655 133.913841 82.783333 130.575286 
C 83.37201 127.236732 84.540335 124.026784 86.235364 121.090909 
C 87.930392 118.155034 90.126126 115.53826 92.72306 113.359174 
C 95.319994 111.180087 98.278298 109.47211 101.463909 108.312642 
C 104.64952 107.153174 108.01358 106.56 111.403636 106.56 
C 114.793693 106.56 118.157752 107.153174 121.343364 108.312642 
C 124.528975 109.47211 127.487279 111.180087 130.084213 113.359174 
L 173.672225 61.413004 
z
" style="fill:#0000cd;stroke:#000000;stroke-linejoin:miter;stroke-opacity:0.5;stroke-width:0.5;"/>
   </g>
   <g id="patch_3">
    <path clip-path="url(#pffe60debc8)" d="M 7.560931 148.372099 
C 9.272735 162.313623 13.774743 175.768705 20.797854 187.933091 
C 27.820966 200.097477 37.222405 210.72387 48.440217 219.177098 
L 95.079787 157.284298 
C 92.171465 155.092721 89.734055 152.33773 87.913248 149.184 
C 86.092442 146.03027 84.925255 142.541916 84.481454 138.927447 
L 7.560931 148.372099 
z
" style="fill:none;stroke:#000000;stroke-linejoin:miter;stroke-opacity:0.4;stroke-width:1.5;"/>
   </g>
   <g id="patch_4">
    <path clip-path="url(#pffe60debc8)" d="M 215.246341 122.871537 
C 213.534537 108.930013 209.03253 95.474931 202.009419 83.310545 
C 194.986307 71.14616 185.584868 60.519766 174.367056 52.066538 
L 127.727486 113.959338 
C 130.635808 116.150916 133.073218 118.905907 134.894024 122.059636 
C 136.714831 125.213366 137.882018 128.701721 138.325819 132.31619 
L 215.246341 122.871537 
z
" style="fill:none;stroke:#000000;stroke-linejoin:miter;stroke-opacity:0.4;stroke-width:1.5;"/>
   </g>
   <g id="patch_5">
    <path clip-path="url(#pffe60debc8)" d="M 136.863791 97.875587 
C 129.791291 93.105126 121.518396 90.417099 112.992617 90.119372 
C 104.466838 89.821645 96.026587 91.926036 88.638545 96.191524 
C 81.250504 100.457012 75.207922 106.714288 71.202872 114.246693 
C 67.197821 121.779097 65.389273 130.287648 65.984364 138.797843 
L 66.950731 138.730268 
C 66.368302 130.401141 68.138371 122.073623 72.058207 114.701482 
C 75.978044 107.329342 81.89206 101.205199 89.122909 97.030467 
C 96.353758 92.855734 104.614429 90.796117 112.958809 91.087509 
C 121.303188 91.378901 129.400065 94.009736 136.322086 98.678698 
L 136.863791 97.875587 
z
" style="fill:#ffffff;"/>
   </g>
   <g id="patch_6">
    <path clip-path="url(#pffe60debc8)" d="M 147.697899 81.813361 
C 137.615826 75.012916 125.822549 71.181048 113.668779 70.756629 
C 101.515009 70.33221 89.483162 73.332086 78.951273 79.412676 
C 68.419383 85.493265 59.805491 94.413211 54.096164 105.150894 
C 48.386836 115.888578 45.808693 128.017789 46.657014 140.149343 
L 47.623381 140.081768 
C 46.787722 128.131282 49.327386 116.183104 54.951499 105.605684 
C 60.575613 95.028265 69.060939 86.241452 79.435636 80.251618 
C 89.810333 74.261784 101.6626 71.306682 113.634971 71.724766 
C 125.607341 72.142851 137.224599 75.917527 147.156194 82.616472 
L 147.697899 81.813361 
z
" style="fill:#ffffff;"/>
   </g>
   <g id="patch_7">
    <path clip-path="url(#pffe60debc8)" d="M 158.532008 65.751135 
C 145.44036 56.920706 130.126702 51.944997 114.344941 51.393886 
C 98.563179 50.842775 82.939737 54.738137 69.264 62.633827 
C 55.588263 70.529517 44.40306 82.112135 36.989455 96.055096 
C 29.575851 109.998058 26.228113 125.747929 27.329664 141.500843 
L 28.296031 141.433268 
C 27.207142 125.861422 30.5164 110.292584 37.844791 96.509886 
C 45.173181 82.727188 56.229819 71.277705 69.748364 63.472769 
C 83.266908 55.667834 98.710771 51.817247 114.311132 52.362023 
C 129.911494 52.9068 145.049133 57.825317 157.990302 66.554246 
L 158.532008 65.751135 
z
" style="fill:#ffffff;"/>
   </g>
   <g id="patch_8">
    <path clip-path="url(#pffe60debc8)" d="M 85.943482 173.36805 
C 93.015981 178.138511 101.288877 180.826537 109.814656 181.124264 
C 118.340435 181.421991 126.780685 179.3176 134.168727 175.052112 
C 141.556769 170.786624 147.59935 164.529348 151.604401 156.996944 
C 155.609451 149.464539 157.418 140.955988 156.822909 132.445793 
L 155.856541 132.513368 
C 156.438971 140.842495 154.668902 149.170013 150.749065 156.542154 
C 146.829229 163.914295 140.915213 170.038437 133.684364 174.21317 
C 126.453514 178.387903 118.192843 180.447519 109.848464 180.156127 
C 101.504085 179.864735 93.407208 177.2339 86.485187 172.564938 
L 85.943482 173.36805 
z
" style="fill:#ffffff;"/>
   </g>
   <g id="patch_9">
    <path clip-path="url(#pffe60debc8)" d="M 75.109373 189.430276 
C 85.191447 196.23072 96.984724 200.062588 109.138494 200.487007 
C 121.292264 200.911426 133.324111 197.91155 143.856 191.830961 
C 154.387889 185.750372 163.001782 176.830425 168.711109 166.092742 
C 174.420436 155.355059 176.99858 143.225848 176.150259 131.094293 
L 175.183891 131.161868 
C 176.019551 143.112355 173.479887 155.060533 167.855774 165.637952 
C 162.23166 176.215371 153.746333 185.002184 143.371636 190.992018 
C 132.996939 196.981852 121.144673 199.936954 109.172302 199.51887 
C 97.199932 199.100786 85.582674 195.32611 75.651079 188.627164 
L 75.109373 189.430276 
z
" style="fill:#ffffff;"/>
   </g>
   <g id="patch_10">
    <path clip-path="url(#pffe60debc8)" d="M 64.275265 205.492502 
C 77.366913 214.32293 92.680571 219.298639 108.462332 219.84975 
C 124.244093 220.400861 139.867536 216.5055 153.543273 208.609809 
C 167.21901 200.714119 178.404213 189.131502 185.817817 175.18854 
C 193.231422 161.245578 196.57916 145.495707 195.477609 129.742793 
L 194.511242 129.810368 
C 195.600131 145.382214 192.290872 160.951052 184.962482 174.73375 
C 177.634092 188.516448 166.577454 199.965932 153.058909 207.770867 
C 139.540365 215.575802 124.096502 219.42639 108.49614 218.881613 
C 92.895779 218.336836 77.75814 213.418319 64.816971 204.689391 
L 64.275265 205.492502 
z
" style="fill:#ffffff;"/>
   </g>
   <g id="patch_11">
    <path clip-path="url(#pffe60debc8)" d="M 87.529666 126.932404 
C 83.365387 126.325591 80.600489 126.20927 79.565212 126.597332 
C 78.529935 126.985394 79.267205 127.861749 81.688964 129.121726 
C 84.110723 130.381702 88.116553 131.973056 93.227998 133.705715 
C 98.339443 135.438374 104.344561 137.240496 110.526099 138.896834 
C 116.707636 140.553172 122.809281 141.995047 128.102252 143.050243 
C 133.395223 144.105439 137.660051 144.730201 140.387344 144.849909 
C 143.114637 144.969617 144.191309 144.579306 143.488764 143.725596 
C 142.786219 142.871886 140.333586 141.590174 136.423808 140.03355 
" style="fill:none;stroke:#000000;stroke-linejoin:miter;stroke-opacity:0.4;stroke-width:1.5;"/>
   </g>
   <g id="patch_12">
    <path clip-path="url(#pffe60debc8)" d="M 154.863269 182.806491 
C 156.988529 180.754151 158.530697 178.271627 159.15013 175.905664 
C 159.769562 173.539702 159.415684 171.483472 158.166434 170.189836 
C 156.917184 168.896199 154.874557 168.470776 152.488418 169.00726 
C 150.102279 169.543744 147.567446 170.998334 145.442186 173.050674 
C 143.316926 175.103013 141.774757 177.585538 141.155325 179.951501 
C 140.535892 182.317463 140.88977 184.373693 142.13902 185.667329 
C 143.388271 186.960966 145.430898 187.386389 147.817037 186.849905 
C 150.203176 186.313421 152.738009 184.858831 154.863269 182.806491 
z
"/>
   </g>
   <g id="line2d_1">
    <path clip-path="url(#pffe60debc8)" d="M 150.152727 177.928582 
L 151.230168 176.382089 
L 152.199865 175.355162 
L 153.061818 174.743815 
L 153.816027 174.446866 
L 154.570236 174.374508 
L 155.324444 174.5273 
L 156.078653 174.904058 
L 156.940606 175.605061 
L 157.910303 176.729783 
L 158.987744 178.379666 
L 160.172929 180.650599 
L 161.465859 183.622925 
L 162.974276 187.654704 
L 164.91367 193.536314 
L 167.822761 203.204635 
L 171.593805 215.611501 
L 173.533199 221.224276 
L 175.041616 224.975001 
L 176.334545 227.663394 
L 177.519731 229.644945 
L 178.597172 231.012371 
L 179.566869 231.870905 
L 180.428822 232.328626 
L 181.18303 232.48938 
L 181.937239 232.424995 
L 182.691448 232.135971 
L 183.553401 231.53354 
L 184.415354 230.646781 
L 185.385051 229.320595 
L 186.462492 227.459211 
L 187.755421 224.727403 
L 189.156094 221.223667 
L 190.88 216.270724 
L 193.142626 209.017971 
L 199.28404 188.901485 
L 201.007946 184.16352 
L 202.516364 180.650121 
L 203.809293 178.196 
L 204.886734 176.587335 
L 205.856431 175.501652 
L 206.718384 174.836478 
L 207.580337 174.460646 
L 208.334545 174.372206 
L 209.088754 174.508934 
L 209.842963 174.869772 
L 210.704916 175.552912 
L 211.566869 176.518144 
L 212.536566 177.928952 
L 213.614007 179.878547 
L 214.906936 182.706244 
L 216.415354 186.595842 
L 218.247003 192.006257 
L 220.725118 200.10463 
L 225.681347 216.43514 
L 227.512997 221.654667 
L 229.021414 225.33921 
L 230.314343 227.96182 
L 231.499529 229.877068 
L 232.469226 231.069452 
L 233.438923 231.908005 
L 234.300875 232.347558 
L 235.055084 232.492251 
L 235.809293 232.411784 
L 236.563502 232.106779 
L 237.425455 231.486369 
L 238.287407 230.582108 
L 239.257104 229.237023 
L 240.334545 227.355905 
L 241.627475 224.602596 
L 243.028148 221.078785 
L 244.752054 216.106489 
L 247.01468 208.838485 
L 253.04835 189.060065 
L 254.772256 184.300729 
L 256.280673 180.764051 
L 257.573603 178.287141 
L 257.789091 177.928582 
L 257.789091 177.928582 
" style="fill:none;stroke:#000000;stroke-linecap:round;stroke-width:11;"/>
   </g>
   <g id="line2d_2">
    <path clip-path="url(#pffe60debc8)" d="M 138.528 188.1075 
L 150.152727 177.928582 
" style="fill:none;stroke:#000000;stroke-linecap:square;"/>
   </g>
   <g id="line2d_3">
    <path clip-path="url(#pffe60debc8)" d="M 135.621818 188.1075 
L 138.528 188.1075 
" style="fill:none;stroke:#000000;stroke-linecap:round;"/>
   </g>
   <g id="line2d_4">
    <path clip-path="url(#pffe60debc8)" d="M 138.144267 190.988237 
L 138.528 188.1075 
" style="fill:none;stroke:#000000;stroke-linecap:round;"/>
   </g>
   <g id="line2d_5">
    <path clip-path="url(#pffe60debc8)" d="M 150.152727 177.928582 
L 151.230168 176.382089 
L 152.199865 175.355162 
L 153.061818 174.743815 
L 153.816027 174.446866 
L 154.570236 174.374508 
L 155.324444 174.5273 
L 156.078653 174.904058 
L 156.940606 175.605061 
L 157.910303 176.729783 
L 158.987744 178.379666 
L 160.172929 180.650599 
L 161.465859 183.622925 
L 162.974276 187.654704 
L 164.91367 193.536314 
L 167.822761 203.204635 
L 171.593805 215.611501 
L 173.533199 221.224276 
L 175.041616 224.975001 
L 176.334545 227.663394 
L 177.519731 229.644945 
L 178.597172 231.012371 
L 179.566869 231.870905 
L 180.428822 232.328626 
L 181.18303 232.48938 
L 181.937239 232.424995 
L 182.691448 232.135971 
L 183.553401 231.53354 
L 184.415354 230.646781 
L 185.385051 229.320595 
L 186.462492 227.459211 
L 187.755421 224.727403 
L 189.156094 221.223667 
L 190.88 216.270724 
L 193.142626 209.017971 
L 199.28404 188.901485 
L 201.007946 184.16352 
L 202.516364 180.650121 
L 203.809293 178.196 
L 204.886734 176.587335 
L 205.856431 175.501652 
L 206.718384 174.836478 
L 207.580337 174.460646 
L 208.334545 174.372206 
L 209.088754 174.508934 
L 209.842963 174.869772 
L 210.704916 175.552912 
L 211.566869 176.518144 
L 212.536566 177.928952 
L 213.614007 179.878547 
L 214.906936 182.706244 
L 216.415354 186.595842 
L 218.247003 192.006257 
L 220.725118 200.10463 
L 225.681347 216.43514 
L 227.512997 221.654667 
L 229.021414 225.33921 
L 230.314343 227.96182 
L 231.499529 229.877068 
L 232.469226 231.069452 
L 233.438923 231.908005 
L 234.300875 232.347558 
L 235.055084 232.492251 
L 235.809293 232.411784 
L 236.563502 232.106779 
L 237.425455 231.486369 
L 238.287407 230.582108 
L 239.257104 229.237023 
L 240.334545 227.355905 
L 241.627475 224.602596 
L 243.028148 221.078785 
L 244.752054 216.106489 
L 247.01468 208.838485 
L 253.04835 189.060065 
L 254.772256 184.300729 
L 256.280673 180.764051 
L 257.573603 178.287141 
L 257.789091 177.928582 
L 257.789091 177.928582 
" style="fill:none;stroke:#a9a9a9;stroke-linecap:round;"/>
   </g>
  </g>
 </g>
 <defs>
  <clipPath id="pffe60debc8">
   <rect height="266.4" width="266.4" x="0" y="0"/>
  </clipPath>
 </defs>
</svg>
