<?xml version="1.0" encoding="utf-8" standalone="no"?>
<!DOCTYPE svg PUBLIC "-//W3C//DTD SVG 1.1//EN"
  "http://www.w3.org/Graphics/SVG/1.1/DTD/svg11.dtd">
<!-- Created with matplotlib (https://matplotlib.org/) -->
<svg height="266.4pt" version="1.1" viewBox="0 0 299.484068 266.4" width="299.484068pt" xmlns="http://www.w3.org/2000/svg" xmlns:xlink="http://www.w3.org/1999/xlink">
 <metadata>
  <rdf:RDF xmlns:cc="http://creativecommons.org/ns#" xmlns:dc="http://purl.org/dc/elements/1.1/" xmlns:rdf="http://www.w3.org/1999/02/22-rdf-syntax-ns#">
   <cc:Work>
    <dc:type rdf:resource="http://purl.org/dc/dcmitype/StillImage"/>
    <dc:date>2020-12-21T11:45:32.013598</dc:date>
    <dc:format>image/svg+xml</dc:format>
    <dc:creator>
     <cc:Agent>
      <dc:title>Matplotlib v3.3.2, https://matplotlib.org/</dc:title>
     </cc:Agent>
    </dc:creator>
   </cc:Work>
  </rdf:RDF>
 </metadata>
 <defs>
  <style type="text/css">*{stroke-linecap:butt;stroke-linejoin:round;}</style>
 </defs>
 <g id="figure_1">
  <g id="patch_1">
   <path d="M 0 266.4 
L 299.484068 266.4 
L 299.484068 0 
L 0 0 
z
" style="fill:none;"/>
  </g>
  <g id="axes_1">
   <g id="patch_2">
    <path clip-path="url(#pcc6436d309)" d="M 176.009655 82.18144 
C 170.058347 77.1877 163.278901 73.273585 155.978542 70.616471 
C 148.678182 67.959358 140.96888 66.6 133.2 66.6 
C 125.43112 66.6 117.721818 67.959358 110.421458 70.616471 
C 103.121099 73.273585 96.341653 77.1877 90.390345 82.18144 
C 84.439038 87.17518 79.407148 93.171953 75.522708 99.9 
C 71.638268 106.628047 68.960855 113.984178 67.611804 121.635031 
C 66.262752 129.285885 66.262752 137.114115 67.611804 144.764969 
C 68.960855 152.415822 71.638268 159.771953 75.522708 166.5 
C 79.407148 173.228047 84.439038 179.22482 90.390345 184.21856 
C 96.341653 189.2123 103.121099 193.126415 110.421458 195.783529 
C 117.721818 198.440642 125.43112 199.8 133.2 199.8 
C 140.96888 199.8 148.678182 198.440642 155.978542 195.783529 
C 163.278901 193.126415 170.058347 189.2123 176.009655 184.21856 
C 181.960962 179.22482 186.992852 173.228047 190.877292 166.5 
C 194.761732 159.771953 197.439145 152.415822 198.788196 144.764969 
C 200.137248 137.114115 200.137248 129.285885 198.788196 121.635031 
L 152.876459 129.730509 
C 153.281174 132.025765 153.281174 134.374235 152.876459 136.669491 
C 152.471743 138.964747 151.66852 141.171586 150.503188 143.19 
C 149.337856 145.208414 147.828289 147.007446 146.042896 148.505568 
C 144.257504 150.00369 142.22367 151.177925 140.033562 151.975059 
C 137.843455 152.772193 135.530664 153.18 133.2 153.18 
C 130.869336 153.18 128.556545 152.772193 126.366438 151.975059 
C 124.17633 151.177925 122.142496 150.00369 120.357104 148.505568 
C 118.571711 147.007446 117.062144 145.208414 115.896812 143.19 
C 114.73148 141.171586 113.928257 138.964747 113.523541 136.669491 
C 113.118826 134.374235 113.118826 132.025765 113.523541 129.730509 
C 113.928257 127.435253 114.73148 125.228414 115.896812 123.21 
C 117.062144 121.191586 118.571711 119.392554 120.357104 117.894432 
C 122.142496 116.39631 124.17633 115.222075 126.366438 114.424941 
C 128.556545 113.627807 130.869336 113.22 133.2 113.22 
C 135.530664 113.22 137.843455 113.627807 140.033562 114.424941 
C 142.22367 115.222075 144.257504 116.39631 146.042896 117.894432 
L 176.009655 82.18144 
z
" style="fill:#006400;opacity:0.7;"/>
   </g>
   <g id="patch_3">
    <path clip-path="url(#pcc6436d309)" d="M 61.80814 141.965818 
C 62.985006 151.550616 66.080136 160.800985 70.908525 169.164 
C 75.736914 177.527015 82.200403 184.832661 89.912649 190.644255 
L 121.977353 148.092955 
C 119.977882 146.586245 118.302163 144.692189 117.050358 142.524 
C 115.798554 140.355811 114.996113 137.957567 114.690999 135.47262 
L 61.80814 141.965818 
z
" style="fill:none;stroke:#000000;stroke-linejoin:miter;stroke-opacity:0.4;"/>
   </g>
   <g id="patch_4">
    <path clip-path="url(#pcc6436d309)" d="M 204.59186 124.434182 
C 203.414994 114.849384 200.319864 105.599015 195.491475 97.236 
C 190.663086 88.872985 184.199597 81.567339 176.487351 75.755745 
L 144.422647 118.307045 
C 146.422118 119.813755 148.097837 121.707811 149.349642 123.876 
C 150.601446 126.044189 151.403887 128.442433 151.709001 130.92738 
L 204.59186 124.434182 
z
" style="fill:none;stroke:#000000;stroke-linejoin:miter;stroke-opacity:0.4;"/>
   </g>
   <g id="patch_5">
    <path clip-path="url(#pcc6436d309)" d="M 150.703856 107.249466 
C 145.841513 103.969774 140.153897 102.121755 134.292424 101.917068 
C 128.430951 101.712381 122.628279 103.15915 117.549 106.091673 
C 112.469721 109.024196 108.315447 113.326073 105.561974 118.504601 
C 102.808502 123.683129 101.565125 129.532758 101.97425 135.383517 
L 102.638628 135.337059 
C 102.238208 129.610785 103.45513 123.885616 106.150018 118.817269 
C 108.844905 113.748923 112.910791 109.538575 117.882 106.668446 
C 122.853209 103.798317 128.53242 102.382331 134.269181 102.582663 
C 140.005942 102.782995 145.572545 104.591694 150.331434 107.801605 
L 150.703856 107.249466 
z
" style="fill:#556b2f;opacity:0.3;"/>
   </g>
   <g id="patch_6">
    <path clip-path="url(#pcc6436d309)" d="M 158.152306 96.206685 
C 151.22088 91.53138 143.113002 88.896971 134.757285 88.605183 
C 126.401568 88.313394 118.129674 90.375809 110.889 94.556214 
C 103.648326 98.736619 97.726275 104.869083 93.801113 112.25124 
C 89.87595 119.633397 88.103476 127.97223 88.686697 136.312673 
L 89.351075 136.266216 
C 88.776559 128.050256 90.522578 119.835884 94.389156 112.563908 
C 98.255734 105.291932 104.089396 99.250998 111.222 95.132987 
C 118.354604 91.014976 126.503038 88.983344 134.734042 89.270777 
C 142.965047 89.55821 150.951912 92.153299 157.779883 96.758824 
L 158.152306 96.206685 
z
" style="fill:#556b2f;opacity:0.3;"/>
   </g>
   <g id="patch_7">
    <path clip-path="url(#pcc6436d309)" d="M 165.600755 85.163905 
C 156.600247 79.092986 146.072107 75.672186 135.222147 75.293297 
C 124.372186 74.914408 113.631069 77.592469 104.229 83.020756 
C 94.826931 88.449043 87.137103 96.412093 82.040251 105.997879 
C 76.943398 115.583665 74.641827 126.411701 75.399144 137.24183 
L 76.063521 137.195372 
C 75.31491 126.489728 77.590025 115.786151 82.628294 106.310547 
C 87.666562 96.834942 95.268001 88.963422 104.562 83.597529 
C 113.855999 78.231636 124.473655 75.584357 135.198904 75.958891 
C 145.924152 76.333425 156.331279 79.714905 165.228333 85.716044 
L 165.600755 85.163905 
z
" style="fill:#556b2f;opacity:0.3;"/>
   </g>
   <g id="patch_8">
    <path clip-path="url(#pcc6436d309)" d="M 115.696144 159.150534 
C 120.558487 162.430226 126.246103 164.278245 132.107576 164.482932 
C 137.969049 164.687619 143.771721 163.24085 148.851 160.308327 
C 153.930279 157.375804 158.084553 153.073927 160.838026 147.895399 
C 163.591498 142.716871 164.834875 136.867242 164.42575 131.016483 
L 163.761372 131.062941 
C 164.161792 136.789215 162.94487 142.514384 160.249982 147.582731 
C 157.555095 152.651077 153.489209 156.861425 148.518 159.731554 
C 143.546791 162.601683 137.86758 164.017669 132.130819 163.817337 
C 126.394058 163.617005 120.827455 161.808306 116.068566 158.598395 
L 115.696144 159.150534 
z
" style="fill:#556b2f;opacity:0.3;"/>
   </g>
   <g id="patch_9">
    <path clip-path="url(#pcc6436d309)" d="M 108.247694 170.193315 
C 115.17912 174.86862 123.286998 177.503029 131.642715 177.794817 
C 139.998432 178.086606 148.270326 176.024191 155.511 171.843786 
C 162.751674 167.663381 168.673725 161.530917 172.598887 154.14876 
C 176.52405 146.766603 178.296524 138.42777 177.713303 130.087327 
L 177.048925 130.133784 
C 177.623441 138.349744 175.877422 146.564116 172.010844 153.836092 
C 168.144266 161.108068 162.310604 167.149002 155.178 171.267013 
C 148.045396 175.385024 139.896962 177.416656 131.665958 177.129223 
C 123.434953 176.84179 115.448088 174.246701 108.620117 169.641176 
L 108.247694 170.193315 
z
" style="fill:#556b2f;opacity:0.3;"/>
   </g>
   <g id="patch_10">
    <path clip-path="url(#pcc6436d309)" d="M 100.799245 181.236095 
C 109.799753 187.307014 120.327893 190.727814 131.177853 191.106703 
C 142.027814 191.485592 152.768931 188.807531 162.171 183.379244 
C 171.573069 177.950957 179.262897 169.987907 184.359749 160.402121 
C 189.456602 150.816335 191.758173 139.988299 191.000856 129.15817 
L 190.336479 129.204628 
C 191.08509 139.910272 188.809975 150.613849 183.771706 160.089453 
C 178.733438 169.565058 171.131999 177.436578 161.838 182.802471 
C 152.544001 188.168364 141.926345 190.815643 131.201096 190.441109 
C 120.475848 190.066575 110.068721 186.685095 101.171667 180.683956 
L 100.799245 181.236095 
z
" style="fill:#556b2f;opacity:0.3;"/>
   </g>
   <g id="patch_11">
    <path clip-path="url(#pcc6436d309)" d="M 116.786646 127.226028 
C 113.923704 126.808844 112.022836 126.728873 111.311083 126.995666 
C 110.59933 127.262458 111.106204 127.864953 112.771163 128.731186 
C 114.436122 129.59742 117.19013 130.691476 120.704249 131.882679 
C 124.218367 133.073882 128.346886 134.312841 132.596693 135.451573 
C 136.8465 136.590305 141.041381 137.581595 144.680298 138.307042 
C 148.319216 139.032489 151.251285 139.462013 153.126299 139.544312 
C 155.001313 139.626612 155.741525 139.358273 155.258525 138.771347 
C 154.775525 138.184421 153.08934 137.303245 150.401368 136.233065 
" style="fill:none;stroke:#000000;stroke-linejoin:miter;stroke-opacity:0.4;stroke-width:0.5;"/>
   </g>
   <g id="patch_12">
    <path clip-path="url(#pcc6436d309)" d="M 163.078497 165.639463 
C 164.539614 164.228479 165.599854 162.521743 166.025714 160.895144 
C 166.451574 159.268545 166.208283 157.854887 165.349424 156.965512 
C 164.490564 156.076137 163.086258 155.783658 161.445787 156.152491 
C 159.805317 156.521324 158.062619 157.521355 156.601503 158.932338 
C 155.140386 160.343322 154.080146 162.050057 153.654286 163.676657 
C 153.228426 165.303256 153.471717 166.716914 154.330576 167.606289 
C 155.189436 168.495664 156.593742 168.788143 158.234213 168.41931 
C 159.874683 168.050477 161.617381 167.050446 163.078497 165.639463 
z
"/>
   </g>
   <g id="line2d_1">
    <path clip-path="url(#pcc6436d309)" d="M 159.84 162.2859 
L 160.728889 161.044851 
L 161.543704 160.281796 
L 162.21037 159.934841 
L 162.877037 159.842474 
L 163.46963 159.975128 
L 164.136296 160.36423 
L 164.877037 161.088384 
L 165.691852 162.226252 
L 166.654815 164.00249 
L 167.765926 166.572816 
L 169.099259 170.26866 
L 170.877037 175.918503 
L 175.395556 190.615017 
L 176.802963 194.28827 
L 177.914074 196.616025 
L 178.877037 198.153597 
L 179.691852 199.073827 
L 180.432593 199.591353 
L 181.099259 199.79013 
L 181.691852 199.752184 
L 182.358519 199.468527 
L 183.025185 198.93331 
L 183.765926 198.052027 
L 184.654815 196.615739 
L 185.691852 194.46009 
L 186.877037 191.446514 
L 188.358519 187.035638 
L 190.728889 179.160121 
L 193.395556 170.489691 
L 194.877037 166.385334 
L 196.062222 163.700117 
L 197.099259 161.881302 
L 197.988148 160.762296 
L 198.728889 160.160079 
L 199.395556 159.883535 
L 199.988148 159.851962 
L 200.580741 160.022429 
L 201.247407 160.453479 
L 201.988148 161.222879 
L 202.802963 162.408037 
L 203.765926 164.235616 
L 204.877037 166.857373 
L 206.21037 170.601465 
L 208.062222 176.536554 
L 212.284444 190.295885 
L 213.691852 194.025716 
L 214.802963 196.408873 
L 215.765926 198.000484 
L 216.580741 198.969692 
L 217.321481 199.533497 
L 217.988148 199.774727 
L 218.580741 199.774701 
L 219.173333 199.572769 
L 219.84 199.106879 
L 220.580741 198.299982 
L 221.395556 197.075738 
L 222.358519 195.205871 
L 223.46963 192.541967 
L 224.877037 188.533211 
L 226.802963 182.295218 
L 230.580741 169.938795 
L 232.062222 165.926983 
L 233.247407 163.336923 
L 233.84 162.2859 
L 233.84 162.2859 
" style="fill:none;stroke:#000000;stroke-linecap:round;stroke-width:7;"/>
   </g>
   <g id="line2d_2">
    <path clip-path="url(#pcc6436d309)" d="M 151.848 169.283907 
L 159.84 162.2859 
" style="fill:none;stroke:#000000;stroke-linecap:square;"/>
   </g>
   <g id="line2d_3">
    <path clip-path="url(#pcc6436d309)" d="M 149.85 169.283907 
L 151.848 169.283907 
" style="fill:none;stroke:#000000;stroke-linecap:round;"/>
   </g>
   <g id="line2d_4">
    <path clip-path="url(#pcc6436d309)" d="M 151.584184 171.264413 
L 151.848 169.283907 
" style="fill:none;stroke:#000000;stroke-linecap:round;"/>
   </g>
   <g id="line2d_5">
    <path clip-path="url(#pcc6436d309)" d="M 159.84 162.2859 
L 160.728889 161.044851 
L 161.543704 160.281796 
L 162.21037 159.934841 
L 162.877037 159.842474 
L 163.46963 159.975128 
L 164.136296 160.36423 
L 164.877037 161.088384 
L 165.691852 162.226252 
L 166.654815 164.00249 
L 167.765926 166.572816 
L 169.099259 170.26866 
L 170.877037 175.918503 
L 175.395556 190.615017 
L 176.802963 194.28827 
L 177.914074 196.616025 
L 178.877037 198.153597 
L 179.691852 199.073827 
L 180.432593 199.591353 
L 181.099259 199.79013 
L 181.691852 199.752184 
L 182.358519 199.468527 
L 183.025185 198.93331 
L 183.765926 198.052027 
L 184.654815 196.615739 
L 185.691852 194.46009 
L 186.877037 191.446514 
L 188.358519 187.035638 
L 190.728889 179.160121 
L 193.395556 170.489691 
L 194.877037 166.385334 
L 196.062222 163.700117 
L 197.099259 161.881302 
L 197.988148 160.762296 
L 198.728889 160.160079 
L 199.395556 159.883535 
L 199.988148 159.851962 
L 200.580741 160.022429 
L 201.247407 160.453479 
L 201.988148 161.222879 
L 202.802963 162.408037 
L 203.765926 164.235616 
L 204.877037 166.857373 
L 206.21037 170.601465 
L 208.062222 176.536554 
L 212.284444 190.295885 
L 213.691852 194.025716 
L 214.802963 196.408873 
L 215.765926 198.000484 
L 216.580741 198.969692 
L 217.321481 199.533497 
L 217.988148 199.774727 
L 218.580741 199.774701 
L 219.173333 199.572769 
L 219.84 199.106879 
L 220.580741 198.299982 
L 221.395556 197.075738 
L 222.358519 195.205871 
L 223.46963 192.541967 
L 224.877037 188.533211 
L 226.802963 182.295218 
L 230.580741 169.938795 
L 232.062222 165.926983 
L 233.247407 163.336923 
L 233.84 162.2859 
L 233.84 162.2859 
" style="fill:none;stroke:#a9a9a9;stroke-linecap:round;"/>
   </g>
   <g id="text_1">
    <!-- InPy -->
    <g transform="translate(213.527037 149.85)scale(0.45 -0.45)">
     <defs>
      <path d="M 8.84375 72.90625 
L 17.71875 72.90625 
L 17.71875 0 
L 8.84375 0 
z
" id="DejaVuSansCondensed-73"/>
      <path d="M 49.421875 33.015625 
L 49.421875 0 
L 41.3125 0 
L 41.3125 32.71875 
Q 41.3125 40.484375 38.578125 44.328125 
Q 35.84375 48.1875 30.421875 48.1875 
Q 23.875 48.1875 20.09375 43.546875 
Q 16.3125 38.921875 16.3125 30.90625 
L 16.3125 0 
L 8.15625 0 
L 8.15625 54.6875 
L 16.3125 54.6875 
L 16.3125 46.1875 
Q 19.1875 51.125 23.109375 53.5625 
Q 27.046875 56 32.234375 56 
Q 40.671875 56 45.046875 50.171875 
Q 49.421875 44.34375 49.421875 33.015625 
z
" id="DejaVuSansCondensed-110"/>
      <path d="M 17.71875 64.796875 
L 17.71875 37.40625 
L 28.859375 37.40625 
Q 35.0625 37.40625 38.453125 40.96875 
Q 41.84375 44.53125 41.84375 51.125 
Q 41.84375 57.671875 38.453125 61.234375 
Q 35.0625 64.796875 28.859375 64.796875 
z
M 8.84375 72.90625 
L 28.859375 72.90625 
Q 39.890625 72.90625 45.53125 67.359375 
Q 51.171875 61.8125 51.171875 51.125 
Q 51.171875 40.328125 45.53125 34.8125 
Q 39.890625 29.296875 28.859375 29.296875 
L 17.71875 29.296875 
L 17.71875 0 
L 8.84375 0 
z
" id="DejaVuSansCondensed-80"/>
      <path d="M 28.953125 -5.078125 
Q 25.53125 -14.84375 22.28125 -17.8125 
Q 19.046875 -20.796875 13.578125 -20.796875 
L 7.125 -20.796875 
L 7.125 -13.28125 
L 11.859375 -13.28125 
Q 15.1875 -13.28125 17.03125 -11.515625 
Q 18.890625 -9.765625 21.140625 -3.21875 
L 22.609375 0.875 
L 2.6875 54.6875 
L 11.234375 54.6875 
L 26.609375 11.921875 
L 42 54.6875 
L 50.59375 54.6875 
z
" id="DejaVuSansCondensed-121"/>
     </defs>
     <use xlink:href="#DejaVuSansCondensed-73"/>
     <use x="26.513672" xlink:href="#DejaVuSansCondensed-110"/>
     <use x="83.544922" xlink:href="#DejaVuSansCondensed-80"/>
     <use x="137.792969" xlink:href="#DejaVuSansCondensed-121"/>
    </g>
   </g>
  </g>
 </g>
 <defs>
  <clipPath id="pcc6436d309">
   <rect height="266.4" width="266.4" x="0" y="0"/>
  </clipPath>
 </defs>
</svg>
