<?xml version="1.0" encoding="utf-8" standalone="no"?>
<!DOCTYPE svg PUBLIC "-//W3C//DTD SVG 1.1//EN"
  "http://www.w3.org/Graphics/SVG/1.1/DTD/svg11.dtd">
<!-- Created with matplotlib (https://matplotlib.org/) -->
<svg height="142.471006pt" version="1.1" viewBox="0 0 257.409156 142.471006" width="257.409156pt" xmlns="http://www.w3.org/2000/svg" xmlns:xlink="http://www.w3.org/1999/xlink">
 <metadata>
  <rdf:RDF xmlns:cc="http://creativecommons.org/ns#" xmlns:dc="http://purl.org/dc/elements/1.1/" xmlns:rdf="http://www.w3.org/1999/02/22-rdf-syntax-ns#">
   <cc:Work>
    <dc:type rdf:resource="http://purl.org/dc/dcmitype/StillImage"/>
    <dc:date>2021-03-26T13:01:43.108311</dc:date>
    <dc:format>image/svg+xml</dc:format>
    <dc:creator>
     <cc:Agent>
      <dc:title>Matplotlib v3.3.4, https://matplotlib.org/</dc:title>
     </cc:Agent>
    </dc:creator>
   </cc:Work>
  </rdf:RDF>
 </metadata>
 <defs>
  <style type="text/css">*{stroke-linecap:butt;stroke-linejoin:round;}</style>
 </defs>
 <g id="figure_1">
  <g id="patch_1">
   <path d="M 0 142.471006 
L 257.409156 142.471006 
L 257.409156 0 
L 0 0 
z
" style="fill:none;"/>
  </g>
  <g id="axes_1">
   <g id="patch_2">
    <path clip-path="url(#p8d22bade53)" d="M 112.862138 21.626811 
C 107.075292 16.77107 100.483191 12.965119 93.384573 10.381433 
C 86.285955 7.797748 78.789695 6.475955 71.235503 6.475955 
C 63.681311 6.475955 56.185051 7.797748 49.086433 10.381433 
C 41.987815 12.965119 35.395714 16.77107 29.608868 21.626811 
C 23.822021 26.482552 18.929185 32.313607 15.152089 38.855729 
C 11.374993 45.397851 8.771569 52.550699 7.459798 59.990125 
C 6.148026 67.429552 6.148026 75.041454 7.459798 82.480881 
C 8.771569 89.920307 11.374993 97.073155 15.152089 103.615277 
C 18.929185 110.157399 23.822021 115.988454 29.608868 120.844195 
C 35.395714 125.699936 41.987815 129.505887 49.086433 132.089573 
C 56.185051 134.673258 63.681311 135.995051 71.235503 135.995051 
C 78.789695 135.995051 86.285955 134.673258 93.384573 132.089573 
C 100.483191 129.505887 107.075292 125.699936 112.862138 120.844195 
C 118.648985 115.988454 123.541821 110.157399 127.318917 103.615277 
C 131.096013 97.073155 133.699437 89.920307 135.011208 82.480881 
C 136.32298 75.041454 136.32298 67.429552 135.011208 59.990125 
L 90.368215 67.86189 
C 90.761746 70.093718 90.761746 72.377288 90.368215 74.609116 
C 89.974683 76.840944 89.193656 78.986799 88.060527 80.949435 
C 86.927398 82.912072 85.459548 84.661388 83.723494 86.118111 
C 81.98744 87.574833 80.009809 88.716618 77.880224 89.491724 
C 75.750639 90.26683 73.50176 90.663367 71.235503 90.663367 
C 68.969246 90.663367 66.720367 90.26683 64.590782 89.491724 
C 62.461197 88.716618 60.483566 87.574833 58.747512 86.118111 
C 57.011459 84.661388 55.543608 82.912072 54.410479 80.949435 
C 53.27735 78.986799 52.496323 76.840944 52.102791 74.609116 
C 51.70926 72.377288 51.70926 70.093718 52.102791 67.86189 
C 52.496323 65.630062 53.27735 63.484207 54.410479 61.521571 
C 55.543608 59.558934 57.011459 57.809618 58.747512 56.352895 
C 60.483566 54.896173 62.461197 53.754388 64.590782 52.979282 
C 66.720367 52.204176 68.969246 51.807639 71.235503 51.807639 
C 73.50176 51.807639 75.750639 52.204176 77.880224 52.979282 
C 80.009809 53.754388 81.98744 54.896173 83.723494 56.352895 
L 112.862138 21.626811 
z
" style="fill:#228b22;stroke:#000000;stroke-linejoin:miter;stroke-width:0.5;"/>
   </g>
   <g id="patch_3">
    <path clip-path="url(#p8d22bade53)" d="M 3.087757 86.96865 
C 4.646644 93.720935 7.200467 100.204191 10.665416 106.205659 
C 14.130365 112.207127 18.468118 117.66043 23.536325 122.386609 
L 58.869049 84.496901 
C 57.55507 83.271595 56.430467 81.857776 55.532147 80.30184 
C 54.633827 78.745904 53.971725 77.065059 53.567569 75.314467 
L 3.087757 86.96865 
z
" style="fill:#ffffff;fill-opacity:0.6;stroke:#000000;stroke-linejoin:miter;stroke-opacity:0.7;"/>
   </g>
   <g id="patch_4">
    <path clip-path="url(#p8d22bade53)" d="M 139.383249 55.502356 
C 137.824362 48.750071 135.270539 42.266815 131.80559 36.265347 
C 128.340641 30.263879 124.002888 24.810576 118.934681 20.084397 
L 83.601957 57.974105 
C 84.915936 59.199411 86.040539 60.61323 86.938859 62.169166 
C 87.837179 63.725102 88.499281 65.405947 88.903437 67.156539 
L 139.383249 55.502356 
z
" style="fill:none;stroke:#000000;stroke-linejoin:miter;stroke-opacity:0.7;"/>
   </g>
   <g id="patch_5">
    <path clip-path="url(#p8d22bade53)" d="M 93.450266 41.755516 
C 87.532758 37.296354 80.407507 34.720565 73.006517 34.36507 
C 65.605527 34.009575 58.2662 35.890581 51.948544 39.762046 
C 45.630887 43.633511 40.622914 49.31894 37.579683 56.074662 
C 34.536452 62.830383 33.596701 70.348413 34.883351 77.645368 
L 41.260922 76.52083 
C 40.2 70.504043 40.974882 64.304966 43.484213 58.734458 
C 45.993544 53.163951 50.122925 48.475966 55.332221 45.283705 
C 60.541517 42.091444 66.593242 40.54044 72.695813 40.833567 
C 78.798383 41.126694 84.673591 43.250591 89.552939 46.927444 
L 93.450266 41.755516 
z
" style="fill:#006400;opacity:0.25;"/>
   </g>
   <g id="patch_6">
    <path clip-path="url(#p8d22bade53)" d="M 103.193584 28.825698 
C 94.680677 22.410763 84.430316 18.705241 73.783277 18.193827 
C 63.136239 17.682414 52.57791 20.388422 43.489351 25.957898 
C 34.400792 31.527374 27.19634 39.706412 22.818359 49.42517 
C 18.440378 59.143927 17.088454 69.959338 18.939425 80.456713 
L 25.316995 79.332175 
C 23.691753 70.114968 24.878808 60.61851 28.722888 52.084967 
C 32.566969 43.551423 38.89283 36.369829 46.873028 31.479557 
C 54.853226 26.589285 64.123954 24.213278 73.472573 24.662324 
C 82.821192 25.111371 91.82151 28.364999 99.296257 33.997625 
L 103.193584 28.825698 
z
" style="fill:#006400;opacity:0.25;"/>
   </g>
   <g id="patch_7">
    <path clip-path="url(#p8d22bade53)" d="M 47.508321 99.512457 
C 53.184345 104.275207 60.165025 107.220373 67.537267 107.962719 
C 74.909509 108.705064 82.337221 107.210747 88.848837 103.675229 
C 95.360452 100.13971 100.659114 94.724169 104.051742 88.136976 
C 107.444369 81.549784 108.776296 74.09124 107.873302 66.736947 
L 101.445618 67.526167 
C 102.190192 73.590234 101.091936 79.740261 98.294507 85.171806 
C 95.497077 90.603351 91.128005 95.068796 85.758778 97.984049 
C 80.389552 100.899301 74.264946 102.131457 68.18608 101.519348 
C 62.107214 100.907238 56.351215 98.478768 51.670984 94.551588 
L 47.508321 99.512457 
z
" style="fill:#006400;opacity:0.25;"/>
   </g>
   <g id="patch_8">
    <path clip-path="url(#p8d22bade53)" d="M 37.101662 111.91463 
C 45.26717 118.766305 55.309552 123.003211 65.915233 124.071147 
C 76.520915 125.139083 87.206396 122.989363 96.573983 117.903178 
C 105.94157 112.816993 113.564207 105.026216 118.444829 95.549903 
C 123.32545 86.073591 125.241556 75.343757 123.942512 64.763896 
L 117.514828 65.553116 
C 118.655452 74.84275 116.973018 84.264068 112.687594 92.584733 
C 108.40217 100.905397 101.709123 107.74608 93.483925 112.211998 
C 85.258726 116.677917 75.876352 118.565475 66.564047 117.627775 
C 57.251741 116.690076 48.43404 112.969866 41.264326 106.953761 
L 37.101662 111.91463 
z
" style="fill:#006400;opacity:0.25;"/>
   </g>
   <g id="patch_9">
    <path clip-path="url(#p8d22bade53)" d="M 71.235503 89.368177 
C 76.044344 89.368177 80.656875 87.457604 84.057239 84.057239 
C 87.457604 80.656875 89.368177 76.044344 89.368177 71.235503 
C 89.368177 66.426662 87.457604 61.814131 84.057239 58.413767 
C 80.656875 55.013402 76.044344 53.10283 71.235503 53.10283 
C 66.426662 53.10283 61.814131 55.013402 58.413767 58.413767 
C 55.013402 61.814131 53.10283 66.426662 53.10283 71.235503 
C 53.10283 76.044344 55.013402 80.656875 58.413767 84.057239 
C 61.814131 87.457604 66.426662 89.368177 71.235503 89.368177 
z
" style="fill-opacity:0.1;stroke:#000000;stroke-linejoin:miter;"/>
   </g>
   <g id="patch_10">
    <path clip-path="url(#p8d22bade53)" d="M 53.79975 65.231892 
C 51.47898 64.962252 50.070958 64.996953 49.728609 65.332224 
C 49.386259 65.667495 50.122442 66.290744 51.8572 67.134278 
C 53.591958 67.977812 56.260128 69.009947 59.57192 70.118581 
C 62.883711 71.227215 66.714723 72.370704 70.648868 73.424855 
C 74.583013 74.479006 78.472511 75.404221 81.894924 76.100011 
C 85.317337 76.795802 88.144107 77.236033 90.068218 77.37289 
C 91.99233 77.509746 92.941507 77.338089 92.812659 76.876561 
C 92.683811 76.415032 91.481779 75.68097 89.337114 74.7541 
" style="fill:none;stroke:#000000;stroke-linejoin:miter;"/>
   </g>
   <g id="patch_11">
    <path clip-path="url(#p8d22bade53)" d="M 100.288326 102.77852 
C 101.709065 101.406528 102.740006 99.746957 103.154098 98.165308 
C 103.568189 96.583659 103.331622 95.209067 102.496496 94.344269 
C 101.661371 93.479471 100.295872 93.195075 98.700735 93.553716 
C 97.105597 93.912356 95.411058 94.884751 93.990319 96.256743 
C 92.56958 97.628735 91.538638 99.288306 91.124547 100.869955 
C 90.710455 102.451604 90.947023 103.826197 91.782148 104.690994 
C 92.617274 105.555792 93.982773 105.840188 95.57791 105.481548 
C 97.173047 105.122907 98.867587 104.150512 100.288326 102.77852 
z
"/>
   </g>
   <g id="line2d_1">
    <path clip-path="url(#p8d22bade53)" d="M 97.139322 99.517632 
L 98.003647 98.310878 
L 98.795945 97.56891 
L 99.444189 97.231542 
L 100.092433 97.141728 
L 100.740676 97.300617 
L 101.38892 97.706174 
L 102.109191 98.439676 
L 102.901489 99.5768 
L 103.837841 101.337303 
L 104.918247 103.87004 
L 106.214734 107.495171 
L 108.015411 113.254011 
L 112.192982 126.857423 
L 113.561497 130.465986 
L 114.71393 132.899064 
L 115.650282 134.394146 
L 116.44258 135.288945 
L 117.162851 135.79217 
L 117.811094 135.985454 
L 118.459338 135.930127 
L 119.107582 135.626897 
L 119.755826 135.079647 
L 120.548123 134.089867 
L 121.412448 132.628924 
L 122.420828 130.465627 
L 123.645288 127.268267 
L 125.229884 122.430859 
L 131.064077 103.86965 
L 132.288538 101.03839 
L 133.296917 99.233202 
L 134.161242 98.110987 
L 134.881513 97.495635 
L 135.529756 97.199312 
L 136.178 97.150954 
L 136.826244 97.351181 
L 137.474487 97.79743 
L 138.194758 98.574752 
L 138.987056 99.757586 
L 139.923408 101.567592 
L 141.003814 104.149736 
L 142.372329 108.039822 
L 144.31706 114.342349 
L 147.918414 126.122182 
L 149.358956 130.032304 
L 150.511389 132.560155 
L 151.447741 134.14251 
L 152.312066 135.187689 
L 153.032337 135.735912 
L 153.680581 135.970477 
L 154.328824 135.956622 
L 154.977068 135.694525 
L 155.625312 135.187542 
L 156.345583 134.345014 
L 157.209908 132.964642 
L 158.218287 130.885576 
L 159.37072 127.971557 
L 160.811262 123.69723 
L 163.116128 116.047679 
L 165.78113 107.386846 
L 167.221672 103.413595 
L 168.374105 100.820884 
L 169.094376 99.517632 
L 169.094376 99.517632 
" style="fill:none;stroke:#000000;stroke-linecap:round;stroke-width:9;"/>
   </g>
   <g id="line2d_2">
    <path clip-path="url(#p8d22bade53)" d="M 89.368177 106.322252 
L 97.139322 99.517632 
" style="fill:none;stroke:#000000;stroke-linecap:square;"/>
   </g>
   <g id="line2d_3">
    <path clip-path="url(#p8d22bade53)" d="M 87.42539 106.322252 
L 89.368177 106.322252 
" style="fill:none;stroke:#000000;stroke-linecap:round;"/>
   </g>
   <g id="line2d_4">
    <path clip-path="url(#p8d22bade53)" d="M 89.11165 108.248028 
L 89.368177 106.322252 
" style="fill:none;stroke:#000000;stroke-linecap:round;"/>
   </g>
   <g id="line2d_5">
    <path clip-path="url(#p8d22bade53)" d="M 97.139322 99.517632 
L 98.003647 98.310878 
L 98.795945 97.56891 
L 99.444189 97.231542 
L 100.092433 97.141728 
L 100.740676 97.300617 
L 101.38892 97.706174 
L 102.109191 98.439676 
L 102.901489 99.5768 
L 103.837841 101.337303 
L 104.918247 103.87004 
L 106.214734 107.495171 
L 108.015411 113.254011 
L 112.192982 126.857423 
L 113.561497 130.465986 
L 114.71393 132.899064 
L 115.650282 134.394146 
L 116.44258 135.288945 
L 117.162851 135.79217 
L 117.811094 135.985454 
L 118.459338 135.930127 
L 119.107582 135.626897 
L 119.755826 135.079647 
L 120.548123 134.089867 
L 121.412448 132.628924 
L 122.420828 130.465627 
L 123.645288 127.268267 
L 125.229884 122.430859 
L 131.064077 103.86965 
L 132.288538 101.03839 
L 133.296917 99.233202 
L 134.161242 98.110987 
L 134.881513 97.495635 
L 135.529756 97.199312 
L 136.178 97.150954 
L 136.826244 97.351181 
L 137.474487 97.79743 
L 138.194758 98.574752 
L 138.987056 99.757586 
L 139.923408 101.567592 
L 141.003814 104.149736 
L 142.372329 108.039822 
L 144.31706 114.342349 
L 147.918414 126.122182 
L 149.358956 130.032304 
L 150.511389 132.560155 
L 151.447741 134.14251 
L 152.312066 135.187689 
L 153.032337 135.735912 
L 153.680581 135.970477 
L 154.328824 135.956622 
L 154.977068 135.694525 
L 155.625312 135.187542 
L 156.345583 134.345014 
L 157.209908 132.964642 
L 158.218287 130.885576 
L 159.37072 127.971557 
L 160.811262 123.69723 
L 163.116128 116.047679 
L 165.78113 107.386846 
L 167.221672 103.413595 
L 168.374105 100.820884 
L 169.094376 99.517632 
L 169.094376 99.517632 
" style="fill:none;stroke:#a9a9a9;stroke-linecap:round;stroke-opacity:0.5;stroke-width:2;"/>
   </g>
   <g id="text_1">
    <!-- InPy -->
    <g transform="translate(149.34275 87.42539)scale(0.55 -0.55)">
     <defs>
      <path d="M 20.3125 71.09375 
L 20.3125 0 
L 8.015625 0 
L 8.015625 71.09375 
z
" id="Roboto-Medium-73"/>
      <path d="M 28.46875 44.140625 
Q 21.390625 44.140625 17.828125 37.703125 
L 17.828125 0 
L 5.953125 0 
L 5.953125 52.828125 
L 17.140625 52.828125 
L 17.53125 46.78125 
Q 23.34375 53.8125 32.8125 53.8125 
Q 40.4375 53.8125 45.015625 49.40625 
Q 49.609375 45.015625 49.65625 34.421875 
L 49.65625 0 
L 37.796875 0 
L 37.796875 34.28125 
Q 37.796875 39.75 35.421875 41.9375 
Q 33.0625 44.140625 28.46875 44.140625 
z
" id="Roboto-Medium-110"/>
      <path d="M 19.578125 26.421875 
L 19.578125 0 
L 7.28125 0 
L 7.28125 71.09375 
L 34.46875 71.09375 
Q 46.828125 71.09375 53.59375 64.6875 
Q 60.359375 58.296875 60.359375 48.484375 
Q 60.359375 38.1875 53.59375 32.296875 
Q 46.828125 26.421875 34.46875 26.421875 
z
M 19.578125 61.1875 
L 19.578125 36.328125 
L 34.46875 36.328125 
Q 41.65625 36.328125 44.796875 39.6875 
Q 47.953125 43.0625 47.953125 48.390625 
Q 47.953125 53.375 44.796875 57.28125 
Q 41.65625 61.1875 34.46875 61.1875 
z
" id="Roboto-Medium-80"/>
      <path d="M 26.953125 -8.015625 
Q 25.875 -10.890625 24.015625 -13.96875 
Q 22.171875 -17.046875 18.921875 -19.1875 
Q 15.671875 -21.34375 10.59375 -21.34375 
Q 8.203125 -21.34375 4.890625 -20.515625 
L 4.890625 -11.328125 
L 7.125 -11.46875 
Q 11.53125 -11.46875 13.8125 -9.875 
Q 16.109375 -8.296875 17.4375 -4.34375 
L 19.140625 0.25 
L 0.59375 52.828125 
L 13.421875 52.828125 
L 24.609375 16.9375 
L 35.359375 52.828125 
L 48 52.828125 
z
" id="Roboto-Medium-121"/>
     </defs>
     <use xlink:href="#Roboto-Medium-73"/>
     <use x="28.222656" xlink:href="#Roboto-Medium-110"/>
     <use x="83.837891" xlink:href="#Roboto-Medium-80"/>
     <use x="147.802734" xlink:href="#Roboto-Medium-121"/>
    </g>
   </g>
  </g>
 </g>
 <defs>
  <clipPath id="p8d22bade53">
   <rect height="142.471006" width="246.086283" x="0" y="0"/>
  </clipPath>
 </defs>
</svg>
