<?xml version="1.0" encoding="utf-8" standalone="no"?>
<!DOCTYPE svg PUBLIC "-//W3C//DTD SVG 1.1//EN"
  "http://www.w3.org/Graphics/SVG/1.1/DTD/svg11.dtd">
<!-- Created with matplotlib (https://matplotlib.org/) -->
<svg height="266.4pt" version="1.1" viewBox="0 0 266.4 266.4" width="266.4pt" xmlns="http://www.w3.org/2000/svg" xmlns:xlink="http://www.w3.org/1999/xlink">
 <metadata>
  <rdf:RDF xmlns:cc="http://creativecommons.org/ns#" xmlns:dc="http://purl.org/dc/elements/1.1/" xmlns:rdf="http://www.w3.org/1999/02/22-rdf-syntax-ns#">
   <cc:Work>
    <dc:type rdf:resource="http://purl.org/dc/dcmitype/StillImage"/>
    <dc:date>2020-12-22T17:30:21.615798</dc:date>
    <dc:format>image/svg+xml</dc:format>
    <dc:creator>
     <cc:Agent>
      <dc:title>Matplotlib v3.3.2, https://matplotlib.org/</dc:title>
     </cc:Agent>
    </dc:creator>
   </cc:Work>
  </rdf:RDF>
 </metadata>
 <defs>
  <style type="text/css">*{stroke-linecap:butt;stroke-linejoin:round;}</style>
 </defs>
 <g id="figure_1">
  <g id="patch_1">
   <path d="M 0 266.4 
L 266.4 266.4 
L 266.4 0 
L 0 0 
z
" style="fill:none;"/>
  </g>
  <g id="axes_1">
   <g id="patch_2">
    <path clip-path="url(#p4692710405)" d="M 173.672225 61.413004 
C 165.015778 54.149382 155.154765 48.456123 144.53606 44.591231 
C 133.917356 40.726339 122.703825 38.749091 111.403636 38.749091 
C 100.103447 38.749091 88.889917 40.726339 78.271212 44.591231 
C 67.652508 48.456123 57.791495 54.149382 49.135048 61.413004 
C 40.478601 68.676625 33.159488 77.399204 27.509394 87.185455 
C 21.859299 96.971705 17.964881 107.671532 16.002623 118.800046 
C 14.040366 129.928559 14.040366 141.315077 16.002623 152.443591 
C 17.964881 163.572105 21.859299 174.271931 27.509394 184.058182 
C 33.159488 193.844433 40.478601 202.567011 49.135048 209.830633 
C 57.791495 217.094254 67.652508 222.787513 78.271212 226.652405 
C 88.889917 230.517297 100.103447 232.494545 111.403636 232.494545 
C 122.703825 232.494545 133.917356 230.517297 144.53606 226.652405 
C 155.154765 222.787513 165.015778 217.094254 173.672225 209.830633 
C 182.328672 202.567011 189.647785 193.844433 195.297879 184.058182 
C 200.947974 174.271931 204.842392 163.572105 206.804649 152.443591 
C 208.766906 141.315077 208.766906 129.928559 206.804649 118.800046 
L 140.02394 130.575286 
C 140.612617 133.913841 140.612617 137.329796 140.02394 140.66835 
C 139.435263 144.006904 138.266938 147.216852 136.571909 150.152727 
C 134.876881 153.088603 132.681147 155.705376 130.084213 157.884463 
C 127.487279 160.063549 124.528975 161.771527 121.343364 162.930994 
C 118.157752 164.090462 114.793693 164.683636 111.403636 164.683636 
C 108.01358 164.683636 104.64952 164.090462 101.463909 162.930994 
C 98.278298 161.771527 95.319994 160.063549 92.72306 157.884463 
C 90.126126 155.705376 87.930392 153.088603 86.235364 150.152727 
C 84.540335 147.216852 83.37201 144.006904 82.783333 140.66835 
C 82.194655 137.329796 82.194655 133.913841 82.783333 130.575286 
C 83.37201 127.236732 84.540335 124.026784 86.235364 121.090909 
C 87.930392 118.155034 90.126126 115.53826 92.72306 113.359174 
C 95.319994 111.180087 98.278298 109.47211 101.463909 108.312642 
C 104.64952 107.153174 108.01358 106.56 111.403636 106.56 
C 114.793693 106.56 118.157752 107.153174 121.343364 108.312642 
C 124.528975 109.47211 127.487279 111.180087 130.084213 113.359174 
L 173.672225 61.413004 
z
" style="fill:#228b22;stroke:#000000;stroke-linejoin:miter;stroke-width:0.5;"/>
   </g>
   <g id="patch_3">
    <path clip-path="url(#p4692710405)" d="M 9.46256 159.15677 
C 11.794474 169.257401 15.614695 178.955596 20.797854 187.933091 
C 25.981014 196.910586 32.469786 205.068092 40.051232 212.137904 
L 92.904865 155.459322 
C 90.939305 153.626408 89.25703 151.511499 87.913248 149.184 
C 86.569466 146.856501 85.579039 144.342154 84.974468 141.723472 
L 9.46256 159.15677 
z
" style="fill:#ffffff;fill-opacity:0.6;stroke:#000000;stroke-linejoin:miter;stroke-opacity:0.7;"/>
   </g>
   <g id="patch_4">
    <path clip-path="url(#p4692710405)" d="M 213.344713 112.086866 
C 211.012798 101.986236 207.192578 92.288041 202.009419 83.310545 
C 196.826259 74.33305 190.337486 66.175545 182.756041 59.105732 
L 129.902408 115.784314 
C 131.867968 117.617229 133.550242 119.732138 134.894024 122.059636 
C 136.237806 124.387135 137.228234 126.901482 137.832804 129.520164 
L 213.344713 112.086866 
z
" style="fill:none;stroke:#000000;stroke-linejoin:miter;stroke-opacity:0.7;"/>
   </g>
   <g id="patch_5">
    <path clip-path="url(#p4692710405)" d="M 144.63433 91.523198 
C 135.782429 84.852812 125.123884 80.999732 114.052866 80.467953 
C 102.981849 79.936174 92.003073 82.749939 82.552596 88.541199 
C 73.102118 94.332459 65.610775 102.837197 61.058457 112.942969 
C 56.506139 123.04874 55.100381 134.294835 57.025059 145.210229 
L 66.56516 143.528051 
C 64.978145 134.527639 66.137279 125.254543 69.890945 116.921714 
C 73.644611 108.588885 79.821683 101.576206 87.614182 96.800956 
C 95.406681 92.025707 104.459356 89.705585 113.588089 90.14407 
C 122.716823 90.582554 131.505447 93.759655 138.804384 99.259798 
L 144.63433 91.523198 
z
" style="fill:#006400;opacity:0.25;"/>
   </g>
   <g id="patch_6">
    <path clip-path="url(#p4692710405)" d="M 159.209196 72.181698 
C 146.474881 62.585704 131.141536 57.042677 115.21481 56.277661 
C 99.288083 55.512645 83.494054 59.560518 69.89863 67.891804 
C 56.303207 76.22309 45.526187 88.457978 38.977238 102.996105 
C 32.428289 117.534232 30.40597 133.712824 33.174806 149.415672 
L 42.714907 147.733494 
C 40.283734 133.945628 42.059429 119.740035 47.809726 106.97485 
C 53.560022 94.209665 63.022771 83.466838 74.960216 76.151562 
C 86.897662 68.836286 100.765589 65.282057 114.750032 65.953778 
C 128.734475 66.625499 142.1979 71.492547 153.379249 79.918298 
L 159.209196 72.181698 
z
" style="fill:#006400;opacity:0.25;"/>
   </g>
   <g id="patch_7">
    <path clip-path="url(#p4692710405)" d="M 75.910541 177.920842 
C 84.40121 185.04536 94.843493 189.450985 105.871507 190.561447 
C 116.89952 191.67191 128.010512 189.436586 137.751129 184.147862 
C 147.491745 178.859139 155.417926 170.758122 160.4929 160.90445 
C 165.567874 151.050778 167.560282 139.893668 166.209508 128.892503 
L 156.594443 130.073085 
C 157.708239 139.144221 156.065377 148.343943 151.880748 156.468901 
C 147.69612 164.593858 141.160498 171.273644 133.128761 175.634521 
C 125.097025 179.995398 115.93533 181.83856 106.842056 180.922916 
C 97.748781 180.007271 89.138478 176.374563 82.1374 170.499961 
L 75.910541 177.920842 
z
" style="fill:#006400;opacity:0.25;"/>
   </g>
   <g id="patch_8">
    <path clip-path="url(#p4692710405)" d="M 60.343394 196.473046 
C 72.558041 206.722352 87.580272 213.060268 103.445134 214.657776 
C 119.309996 216.255283 135.294229 213.039554 149.307046 205.431215 
C 163.319863 197.822876 174.722438 186.168782 182.023279 171.993324 
C 189.324119 157.817866 192.190389 141.767286 190.247172 125.941049 
L 180.632106 127.121631 
C 182.338346 141.017839 179.821621 155.111031 173.411127 167.557775 
C 167.000633 180.004518 156.988616 190.237381 144.684679 196.917874 
C 132.380742 203.598367 118.345806 206.421934 104.415683 205.019244 
C 90.48556 203.616555 77.295308 198.051555 66.570252 189.052165 
L 60.343394 196.473046 
z
" style="fill:#006400;opacity:0.25;"/>
   </g>
   <g id="patch_9">
    <path clip-path="url(#p4692710405)" d="M 111.403636 162.746182 
C 118.597102 162.746182 125.49691 159.888188 130.583458 154.80164 
C 135.670006 149.715092 138.528 142.815284 138.528 135.621818 
C 138.528 128.428353 135.670006 121.528545 130.583458 116.441997 
C 125.49691 111.355449 118.597102 108.497455 111.403636 108.497455 
C 104.210171 108.497455 97.310363 111.355449 92.223815 116.441997 
C 87.137267 121.528545 84.279273 128.428353 84.279273 135.621818 
C 84.279273 142.815284 87.137267 149.715092 92.223815 154.80164 
C 97.310363 159.888188 104.210171 162.746182 111.403636 162.746182 
z
" style="fill-opacity:0.1;stroke:#000000;stroke-linejoin:miter;"/>
   </g>
   <g id="patch_10">
    <path clip-path="url(#p4692710405)" d="M 85.321784 126.641116 
C 81.850184 126.237767 79.743947 126.289675 79.231832 126.791202 
C 78.719717 127.292728 79.82096 128.225035 82.415956 129.486864 
C 85.010952 130.748693 89.002223 132.292645 93.956277 133.951033 
C 98.910331 135.60942 104.641077 137.319947 110.526099 138.896834 
C 116.41112 140.47372 122.229356 141.857734 127.348886 142.898555 
C 132.468416 143.939377 136.696935 144.59791 139.575181 144.802632 
C 142.453427 145.007354 143.873286 144.750575 143.680544 144.060182 
C 143.487803 143.36979 141.689702 142.271718 138.481534 140.885228 
" style="fill:none;stroke:#000000;stroke-linejoin:miter;"/>
   </g>
   <g id="patch_11">
    <path clip-path="url(#p4692710405)" d="M 154.863269 182.806491 
C 156.988529 180.754151 158.530697 178.271627 159.15013 175.905664 
C 159.769562 173.539702 159.415684 171.483472 158.166434 170.189836 
C 156.917184 168.896199 154.874557 168.470776 152.488418 169.00726 
C 150.102279 169.543744 147.567446 170.998334 145.442186 173.050674 
C 143.316926 175.103013 141.774757 177.585538 141.155325 179.951501 
C 140.535892 182.317463 140.88977 184.373693 142.13902 185.667329 
C 143.388271 186.960966 145.430898 187.386389 147.817037 186.849905 
C 150.203176 186.313421 152.738009 184.858831 154.863269 182.806491 
z
"/>
   </g>
   <g id="line2d_1">
    <path clip-path="url(#p4692710405)" d="M 150.152727 177.928582 
L 151.230168 176.382089 
L 152.199865 175.355162 
L 153.061818 174.743815 
L 153.816027 174.446866 
L 154.570236 174.374508 
L 155.324444 174.5273 
L 156.078653 174.904058 
L 156.940606 175.605061 
L 157.910303 176.729783 
L 158.987744 178.379666 
L 160.172929 180.650599 
L 161.465859 183.622925 
L 162.974276 187.654704 
L 164.91367 193.536314 
L 167.822761 203.204635 
L 171.593805 215.611501 
L 173.533199 221.224276 
L 175.041616 224.975001 
L 176.334545 227.663394 
L 177.519731 229.644945 
L 178.597172 231.012371 
L 179.566869 231.870905 
L 180.428822 232.328626 
L 181.18303 232.48938 
L 181.937239 232.424995 
L 182.691448 232.135971 
L 183.553401 231.53354 
L 184.415354 230.646781 
L 185.385051 229.320595 
L 186.462492 227.459211 
L 187.755421 224.727403 
L 189.156094 221.223667 
L 190.88 216.270724 
L 193.142626 209.017971 
L 199.28404 188.901485 
L 201.007946 184.16352 
L 202.516364 180.650121 
L 203.809293 178.196 
L 204.886734 176.587335 
L 205.856431 175.501652 
L 206.718384 174.836478 
L 207.580337 174.460646 
L 208.334545 174.372206 
L 209.088754 174.508934 
L 209.842963 174.869772 
L 210.704916 175.552912 
L 211.566869 176.518144 
L 212.536566 177.928952 
L 213.614007 179.878547 
L 214.906936 182.706244 
L 216.415354 186.595842 
L 218.247003 192.006257 
L 220.725118 200.10463 
L 225.681347 216.43514 
L 227.512997 221.654667 
L 229.021414 225.33921 
L 230.314343 227.96182 
L 231.499529 229.877068 
L 232.469226 231.069452 
L 233.438923 231.908005 
L 234.300875 232.347558 
L 235.055084 232.492251 
L 235.809293 232.411784 
L 236.563502 232.106779 
L 237.425455 231.486369 
L 238.287407 230.582108 
L 239.257104 229.237023 
L 240.334545 227.355905 
L 241.627475 224.602596 
L 243.028148 221.078785 
L 244.752054 216.106489 
L 247.01468 208.838485 
L 253.04835 189.060065 
L 254.772256 184.300729 
L 256.280673 180.764051 
L 257.573603 178.287141 
L 257.789091 177.928582 
L 257.789091 177.928582 
" style="fill:none;stroke:#000000;stroke-linecap:round;stroke-width:13;"/>
   </g>
   <g id="line2d_2">
    <path clip-path="url(#p4692710405)" d="M 138.528 188.1075 
L 150.152727 177.928582 
" style="fill:none;stroke:#000000;stroke-linecap:square;"/>
   </g>
   <g id="line2d_3">
    <path clip-path="url(#p4692710405)" d="M 135.621818 188.1075 
L 138.528 188.1075 
" style="fill:none;stroke:#000000;stroke-linecap:round;"/>
   </g>
   <g id="line2d_4">
    <path clip-path="url(#p4692710405)" d="M 138.144267 190.988237 
L 138.528 188.1075 
" style="fill:none;stroke:#000000;stroke-linecap:round;"/>
   </g>
   <g id="line2d_5">
    <path clip-path="url(#p4692710405)" d="M 150.152727 177.928582 
L 151.230168 176.382089 
L 152.199865 175.355162 
L 153.061818 174.743815 
L 153.816027 174.446866 
L 154.570236 174.374508 
L 155.324444 174.5273 
L 156.078653 174.904058 
L 156.940606 175.605061 
L 157.910303 176.729783 
L 158.987744 178.379666 
L 160.172929 180.650599 
L 161.465859 183.622925 
L 162.974276 187.654704 
L 164.91367 193.536314 
L 167.822761 203.204635 
L 171.593805 215.611501 
L 173.533199 221.224276 
L 175.041616 224.975001 
L 176.334545 227.663394 
L 177.519731 229.644945 
L 178.597172 231.012371 
L 179.566869 231.870905 
L 180.428822 232.328626 
L 181.18303 232.48938 
L 181.937239 232.424995 
L 182.691448 232.135971 
L 183.553401 231.53354 
L 184.415354 230.646781 
L 185.385051 229.320595 
L 186.462492 227.459211 
L 187.755421 224.727403 
L 189.156094 221.223667 
L 190.88 216.270724 
L 193.142626 209.017971 
L 199.28404 188.901485 
L 201.007946 184.16352 
L 202.516364 180.650121 
L 203.809293 178.196 
L 204.886734 176.587335 
L 205.856431 175.501652 
L 206.718384 174.836478 
L 207.580337 174.460646 
L 208.334545 174.372206 
L 209.088754 174.508934 
L 209.842963 174.869772 
L 210.704916 175.552912 
L 211.566869 176.518144 
L 212.536566 177.928952 
L 213.614007 179.878547 
L 214.906936 182.706244 
L 216.415354 186.595842 
L 218.247003 192.006257 
L 220.725118 200.10463 
L 225.681347 216.43514 
L 227.512997 221.654667 
L 229.021414 225.33921 
L 230.314343 227.96182 
L 231.499529 229.877068 
L 232.469226 231.069452 
L 233.438923 231.908005 
L 234.300875 232.347558 
L 235.055084 232.492251 
L 235.809293 232.411784 
L 236.563502 232.106779 
L 237.425455 231.486369 
L 238.287407 230.582108 
L 239.257104 229.237023 
L 240.334545 227.355905 
L 241.627475 224.602596 
L 243.028148 221.078785 
L 244.752054 216.106489 
L 247.01468 208.838485 
L 253.04835 189.060065 
L 254.772256 184.300729 
L 256.280673 180.764051 
L 257.573603 178.287141 
L 257.789091 177.928582 
L 257.789091 177.928582 
" style="fill:none;stroke:#a9a9a9;stroke-linecap:round;stroke-opacity:0.5;stroke-width:2;"/>
   </g>
  </g>
 </g>
 <defs>
  <clipPath id="p4692710405">
   <rect height="266.4" width="266.4" x="0" y="0"/>
  </clipPath>
 </defs>
</svg>
